<svg width="677.17mm" height="267.49mm" version="1.1" viewBox="0 0 677.17 267.49" xmlns="http://www.w3.org/2000/svg">
 <defs>
  <clipPath id="clipPath1555">
   <rect x="-283.14" y="-909.76" width="677.21" height="267.49" ry="20.225" fill="none" stroke="#000" stroke-width=".39753" style="font-variation-settings:normal"/>
  </clipPath>
  <linearGradient id="linearGradient1506" x1="292.69" x2="295.05" y1="-11.603" y2="247.06" gradientTransform="matrix(.88481 0 0 1.0129 -199.9 -905.54)" gradientUnits="userSpaceOnUse">
   <stop stop-color="#ffdb14" offset="0"/>
   <stop stop-color="#d6340e" offset="1"/>
  </linearGradient>
  <linearGradient id="linearGradient1508" x1="-526.05" x2="-526.05" y1="97.224" y2="244.95" gradientTransform="translate(579.76 -905.71)" gradientUnits="userSpaceOnUse">
   <stop stop-color="#fff" stop-opacity=".86961" offset="0"/>
   <stop stop-color="#d6890e" offset="1"/>
  </linearGradient>
 </defs>
 <g transform="translate(178.07 -38.868)">
  <g transform="translate(105.04 948.63)" clip-path="url(#clipPath1555)">
   <path d="m-283.1-918.64h677.61v266.39h-677.61z" fill="url(#linearGradient1506)" opacity=".999" stroke-width=".36245" style="font-variation-settings:normal"/>
   <path d="m208.78-709.86a153.08 152.19 0 0 1-153.08 152.19 153.08 152.19 0 0 1-153.08-152.19 153.08 152.19 0 0 1 153.08-152.19 153.08 152.19 0 0 1 153.08 152.19z" fill="url(#linearGradient1508)" opacity=".98752" stroke-width=".36463" style="font-variation-settings:normal;mix-blend-mode:hard-light"/>
   <path d="m55.84-537.64h-338.67l0.24322-123.3 0.54422-2.6524 0.48353-0.29884 0.65631 2.5339 0.6563 2.5339 0.32562-1.0583 0.32563-1.0583 0.19645-0.52916 0.19645-0.52917 0.83412 3.175 0.25263-1.8521 0.25264-1.8521h0.65911l-0.15836 0.44097-0.15835 0.44098 0.55096 3.5278 0.4581-1.8513 0.45811-1.8513 0.63557 0.3928v2.5689l0.29314-0.33514 0.29315-0.33514 0.64843-2.293 0.64844-2.2931 0.58628-0.67028 0.0542 1.0231 0.46507-1.4111 0.46506-1.4111 0.074 2.9527 0.66948 1.7608 3.2323 1.4298 1.0912-0.41872 0.69202-1.8201 0.55094 0.89144 0.46005-0.55434 0.46005-0.55433-0.21315-2.2826-0.21316-2.2826-0.75729-1.415h0.41467l2.2046 4.7112 2.4304-2.771 2.6606-5.4506 0.44318-2.9789 0.44319-2.9789-0.21362-5.9375-0.21361-5.9375-1.0845-4.9389-2.0788-4.2338-7.8703-8.4662-5.1836-6.8546-2.3344-4.2496-0.52916-8e-3v0.92348l-0.98742 1.3504-1.7785-0.95182 0.18597-0.48463 0.18597-0.48462h-1.2837l-1.5886-1.9403-0.0254 1.8986-0.65736 0.40627-0.071-36.356 0.90477 0.184 0.11163-0.97014 0.11162-0.97014h0.3523l1.2906 0.69073 0.4436-0.53451 0.44361-0.5345-2.0478-2.1622-1.5833-0.6155 4e-3 -36.72 0.87744 0.22022 0.87743 0.22023v-1.5352l1.4606 0.46358 0.17357-0.66376 0.17358-0.66377 1.5111-0.1138 0.74007 0.61421 1.3795-1.0087-7.2023-6.9307v-2.2092l4.5861 3.2059-8e-3 -0.58372-1.0794-3.5278-0.65495-2.9986-0.65496-2.9986-0.22674-1.6255-0.22675-1.6255-1.719-0.78323-8e-3 -18.629 1.1193-2.2437 0.82882 0.54306 0.82882 0.54307 0.22905-0.37062 0.22906-0.37062 1.6954-0.64457v-1.3712l0.42826-1.116h-1.0938l0.10083-1.3229 0.10082-1.3229-0.61931-1.2347h0.73038v-1.0583h-1.6069l-1.6137-1.1303-0.20384 0.20385-0.20385 0.20384 0.88956 1.0718-1.1581 1.7674h-0.68929v-40.62l1.9403 0.22688-0.11087-1.5488-0.11088-1.5488 1.439 0.193 1.439 0.19301 0.68596-1.2817 0.71205 0.1862 0.71206 0.18621 1.0284-0.85354-0.55489-0.84686-0.55489-0.84687 0.20411-0.53189 0.2041-0.53189h2.4916v-1.3247l1.1392-0.94546 1.3302 1.6428 2.5e-4 0.4019 2.5e-4 0.40189 1.8237 0.1056 0.55396 0.79088 0.55395 0.79087 1.3058-2.5453 1.0324 0.39617 0.80506 2.2258 1.7315 0.1046 0.21079 0.21079 0.21079 0.2108-0.36975 0.8115-0.36974 0.81152 0.81027 1.1081 0.96512-1.0332 0.21939 0.35499 0.2194 0.35499 1.9211-0.36723-0.68815-1.2858v-0.84013l2.094 0.4188 0.33804-0.60405 0.33805-0.60406 1.7557 1.6494 0.83123-1.5532-0.38546-0.38546-0.38545-0.38546v-1.5095l0.87776-0.39994 0.87776-0.39993 1.0667 0.40932v-1.0108l1.7117-1.608 0.75778 0.46834v2.3513l0.88195 0.22135 0.88194 0.22136v1.356l0.70556 0.43606v-1.0752l0.65151-0.34868 0.65151-0.34867 0.81364 0.81364v1.3655l0.89035 0.82514 0.89034 0.82515 0.51237 0.0624-0.1648 1.3481 1.503 0.80436 0.31858-0.56927 0.31858-0.56926h1.0481l-0.3652-0.68237-0.36518-0.68236v-0.39916h1.6775l0.90316-1.0882 0.73546 0.73546h1.2921l0.20306-0.52917 0.20306-0.52916h0.90736l0.21413 0.55802 0.21414 0.55802v1.3118l0.69607 0.4302 2.4129-0.66624 0.7549 0.7549 1.3956-1.263 2.0888 0.72814-0.99824-2.3891v-1.081h1.316l1.7391 1.368 1.1713-1.368h0.64344l0.37955 1.0888 0.37954 1.0888 1.5665 1.6276 1.5929-1.0437 0.36829 0.22761 0.36829 0.22762v2.0246l-0.51987 0.51988-0.51988 0.51988 1.7453 1.1436v1.4197l1.3649-0.73048 1.678 0.63796-0.31546-2.1494 2.0351 0.51324 1.9882-0.0354 2.034 2.0808 0.42914-0.69436h1.3695v1.2153l0.58078-0.87225 0.58078-0.87224 1.059-0.85935 0.60162 0.37182v2.3513l1.7169 0.43091 0.22367 0.70474 0.22368 0.70473h0.65801v-0.70555l1.4583-1.4583 0.87145 0.72323 1.5508-0.40554v-0.69737l2.9986 0.40924 1.4111 0.194 0.0375 0.70555 0.0375 0.70556 0.26481 0.61736 0.26482 0.61736-0.19872 0.51787-0.19873 0.51787 0.33737 0.2085 0.33737 0.20851v1.445l-1.0583-0.40612v0.68341h1.7639v-1.0167l0.81982-0.50668 0.61678 0.76168 0.61678 0.76169h1.3333l0.84667 0.84667v-1.5106l0.83304-0.51484 1.0169 1.5315h1.325v1.7062l0.42826 1.116h1.3356v1.0308l-1.5442 1.4386h1.1914v-0.63007l1.1783-0.45217 0.5067 0.81985 0.39222-0.24241 0.39222-0.2424v-1.7222h0.39916l1.2942 0.69263 0.40116-1.0454h1.4333v1.786l0.4944 0.18972 0.49441 0.18973 0.19019 0.7273 0.1902 0.72731 1.1506-1.1506h0.60761l0.22294 0.7024 0.22293 0.70239-0.20428 0.33054-0.20429 0.33054 0.71068 0.22555 0.71068 0.22557v0.61637l-0.31066 0.19199-0.31065 0.192-0.16959 0.88715-0.16959 0.88716h0.91885l0.17556 0.28406 0.17555 0.28406-0.29162 1.293-0.29163 1.293 0.97934 0.81278v1.7639l0.95658-0.79388 2.2097-0.25728 0.8079 0.97346 0.9499-0.78834-0.34537-0.64532-0.34536-0.64532v-0.75192h2.3872l0.1845-0.70556 0.18451-0.70556h1.1857l0.79896 2.1167h1.6243l0.39606 0.86927 0.39607 0.86927 1.133-2.2257 0.82221-0.25729 0.45352 1.2542 0.45351 1.2542h1.6283l-0.45608 3.8806 1.3319 0.01 0.50127 0.31726 0.50127 0.31727-1.1601 1.7706-1.4299 0.45384v2.0691l-1.4111 1.4111-1.2347 5e-4 -0.0938 1.9398 0.36544-0.79375 0.36543-0.79375h0.80941l0.86286 0.86286 1.276-0.10994 1.276-0.10993-0.2483 0.82504-0.2483 0.82502-0.066 0.70556 0.1112 2.2495 1.9403-0.1328-0.12082 0.70555-0.12081 0.70556 0.0358 1.5875 0.1256 1.2347 0.26481 0.35278 0.2648 0.35278 0.24729 1.4993 0.24728 1.4993h1.7019v0.70555h1.1216l1.2954-1.5875 0.25907 0.70556 0.25908 0.70556 0.60544 0.59044 0.60543 0.59045 0.76467-0.76467 1.4158 1.7004 0.0117 0.29944 0.0118 0.29943 2.1913 2.047h0.32571l-0.22395-0.70557-0.22394-0.70555h0.42299l2.5974 1.0852 0.58794 0.53206 0.58792 0.53207 0.22545-0.8983 0.22542-0.89828h0.67868l0.21547 0.85846 0.21545 0.85845 0.99364-0.38129v1.445l-0.35279 0.21803-0.35278 0.21802v1.3916l0.52271 0.20058 0.5227 0.20058-0.35871 0.67029-0.35873 0.6703h-1.4038l-0.34339 0.90317-0.34338 0.90317-0.70687-0.43687-0.01 0.92358-0.22729 0.84947-0.22728 0.84946 0.76747-0.2007 0.76749-0.2007 0.99551 0.99553h1.1087v0.70555h0.62326l0.19141-0.73195 0.19141-0.73194 0.67465 0.36105 0.67464 0.36106 0.81416-0.21291 0.81416-0.2129-0.18065 0.94499-0.18063 0.945 0.30545 0.18879 0.30547 0.18878v1.2716l0.91337-0.17461 0.91338-0.1746-0.10875 0.84089-0.10873 0.84088 0.26837 0.43101 0.26835 0.431-0.58556 0.89368-0.58556 0.89367 0.42489 0.51195 0.42487 0.51195-0.49622 0.8029-1.7364-0.33193-1.6938 1.6938-1.7018-0.42712-0.23569 0.38136-0.23568 0.38136h-1.4518l0.32948-1.2599h-1.2495l0.32347 0.6044 0.32346 0.60441-0.39834 1.0381 0.37683 0.23289 0.37682 0.23289v2.4984l2.4694-2.4694v-0.72798l1.6173 0.1724 0.79184 0.48938 0.11833-0.30834 0.11833-0.30835 1.5875-0.49359v1.3723l1.0583 0.87834 0.0214-0.61556 0.37037 0.63664 0.37036 0.63663 0.11679 1.2566 0.1168 1.2567-0.63329 0.16561-0.6333 0.1656 0.18636 0.76334 0.18636 0.76332 0.34129 0.43647 0.34129 0.43648-0.20791 0.54183-0.20792 0.54181 1.3488-0.72188h0.83423l-0.40554 1.5508 0.36838 0.44388 0.36839 0.44387-0.45516 0.73646h-0.90734l-0.67204 0.76538-0.67204 0.76537 1.2295-0.44826 0.83491 0.89377 0.99628-0.14623 0.99629-0.14622v0.64453l-0.41359 0.41359-0.41359 0.41358-0.078 1.7834h1.3335l-0.25272 0.61736-0.25271 0.61736-0.1492 1.0583-0.55476 1.2347 0.37965 0.98934-0.39694 0.39694-1.1962-0.6402-1.345 1.547-0.012 1.9318 1.2347-0.39188v1.3832l1.0464 0.40155-0.22995 0.59923-0.22994 0.59923 1.5301-0.40014 2e-3 0.58434 2e-3 0.58433 1.0561 0.60095 1.0561 0.60097v0.82655l-2.0428-0.40857-0.50102 1.5551-0.102 0.70556-0.65795 0.97014-0.65792 0.97013h-0.9772v1.4111h-0.39915l-0.77057-0.40411-0.77055-0.40411 1.3441 1.5138h-0.70695l-1.5541 1.3478 0.74055 0.45769v0.66392h-1.0805l-0.1945 0.50689-0.19453 0.50689-1.0338-0.39672-0.91673 1.2537-0.25107-0.40622-0.25106-0.40622h-0.96762l-0.11546 0.79375-0.11545 0.79375 0.5319 0.44097 0.53188 0.44097-0.56012 0.44098-0.56013 0.44097 0.13292 0.39412 0.13294 0.39412-2.144 0.42884v1.076h-1.5522l0.84667 0.84667v0.56444h-1.0583v1.0718l-0.88195-0.22134-0.88194-0.22136v1.0932l0.70555 0.43605v0.66392h-1.4111l-0.0836 1.2347 0.0635 0.46832 0.0635 0.46831-1.4546 0.38038v0.60113l-1.1604-0.44527-0.45015 0.61561-0.45016 0.61562-0.41127-0.76848-0.41128-0.76847-1.3501 1.4492v0.31326l2.1803 0.76006-0.14285 0.44823-0.14283 0.44823-0.77092 0.34824-0.77093 0.34824v2.0054l-2.0621-0.45292 0.16521 0.6394 0.16522 0.6394-2.1817 0.95564-1.3782-0.36042v0.7259l-0.5291-0.43917-0.52917-0.43917v-1.0484l-0.96942 0.24331-0.96941 0.2433-0.14825 0.14825-0.14825 0.14824 0.92148 1.7218-1.7743 2.1086-1.498-1.0492v0.41761l-0.66662-0.35676-0.66661-0.35677-0.22151 0.78532-0.22149 0.78533-1.2224-1.4111-1.3229 0.1095-1.3229 0.10948v1.3685h-1.2945l-2.0458-2.293-0.13174 0.70555-0.13176 0.70556-0.358 0.44097-0.35801 0.44097h1.1447v0.181l-0.65632 2.2884h1.0846l-0.42826 1.116v1.0006h-1.0583v1.4934l-1.5875-0.50324-1.7639-0.1744-0.8598-0.1102 0.22656-0.59041 0.22657-0.59041-1.2385 0.47527h-1.0066l0.88792 1.4541-1.2347 0.91676v0.92499l-0.54552 0.60279-0.54553 0.60279 1.7966 0.45092v1.0314l-1.759 0.44148 0.17509 0.28331 0.1751 0.28331-0.20944 0.5458-0.20945 0.5458-2.0379-0.40758-0.35151 0.92455-0.35152 0.92455h-0.74516l-0.20625-0.53748-0.20624-0.53747-1.1901 0.22326-1.1901 0.22325-0.18399-0.47953-0.184-0.47953-3.0791 0.016-1.0736 0.89103 0.17016 0.6507 0.17017 0.65072-1.6045 1.4948h1.1454l0.9191 0.34944 0.91911 0.34946-0.7332 1.37-0.69317 0.22001-0.69316 0.22 0.21874 1.0937 0.21875 1.0937-2.6534-0.43059-2.0038 0.40075-0.10774 0.92995-0.10775 0.92996-1.3984-0.2449-1.8855-1.3426h-0.79049l-0.33963 0.8933-0.33963 0.89328-2.2074-1.1415-0.1766-0.67532-0.1766-0.67533h-1.5264l-2.3448-2.4858 0.38611-0.46525 0.38611-0.46523-0.23212-0.23212-0.23213-0.23122h-0.52923l-3.9742 5.6716-6.2207 7.2048-15.835 15.875-2.9245 5.9972-1.826 6.35-0.55619 3.5052-0.55618 3.5052 0.18779 6.1962 0.18778 6.1962 1.1154 4.9388 2.1646 4.4081 1.2898 0.69028 0.2651-0.78532 0.2651-0.78531 0.31184 2.062 1.4778-3.1203 0.14944 0.87896 0.14943 0.87897 0.92962-2.1108 0.1276 2.4694 0.471-1.6806 1.6959 3.6209h0.58495l0.0576-1.9403 0.49039 1.1195 0.49038 1.1195 0.72557 0.44842 0.0214-1.9819 0.78815 1.4111 0.12801 0.15063 0.128 0.15063 1.0286-1.3596 0.0224 1.3917 0.59153-0.84453 0.59153-0.84452 0.24389 0.67783 0.24389 0.67785 0.4875-1.5875 0.48749-1.5875 0.18577 1.4111 0.18578 1.4111 1.9237-3.5278-0.39598 2.8222 1.6938-2.6524 0.27313-0.26131 0.27312-0.26133-0.52408 2.4694 0.73826-0.88196 0.73826-0.88194 0.0484 2.8222 0.94983-1.7147 0.24551 1.4531 0.2455 1.4531 0.93701-0.35956 0.52402-5.0654 0.95011 4.1132 0.68768 1.1785 0.0322-2.8222 0.34198-0.52917 0.34198-0.52916 0.01 3.3098 0.32407 0.20027 0.32407 0.20029 0.27167-1.1496 0.27168-1.1496 0.40858 1.7639 0.40857 1.7639 1.1088-2.4694 0.1034 3.175 1.5406-3.8806 0.35394 2.4694 0.61736-0.87225 0.61736-0.87224 1e-3 0.51947 1e-3 0.51948 0.74494-1.2347 0.74495-1.2347 0.15487-0.16616 0.15486-0.16618 0.57447 0.92951 0.9294-2.3611 0.13576 1.1812 0.13577 1.1812 1.4042-0.36723 0.28279 0.76447 0.2828 0.76446 1.3317 4e-3 0.89632-2.0555 0.93479 1.2784 0.28432-1.199 0.28433-1.199 0.15291 0.88195 0.1529 0.88194 0.55793 0.58239 0.313-2.1326-0.57789 0.35715v-0.4408l0.38089-0.71171 0.3809-0.71171-1.2378-1.3678-0.1632-4.3944-0.5774-2.0442-0.57741-2.0442 0.15317-1.7482 0.15316-1.7482h-0.89351l-0.014-1.5875-0.25066-1.0308-0.70555-0.83876-0.88195 0.72119v-0.90954l-0.20877 0.20877-0.20878 0.20877 0.42858 1.1852 0.42857 1.1852-0.70382 1.5752-0.70383 1.5752-0.4777 5.6444-0.97854 2.004-0.97855 2.004-1.7124-0.87205 0.11178-0.63319 0.11179-0.63319-0.80023 0.49457-0.19275-0.73708-0.19275-0.73709-0.31267 0.19325-0.31267 0.19324v-0.63506l0.9889-3.2859-0.73842 0.45636 0.23304-1.0226 0.23305-1.0226 0.12753-2.161 0.12751-2.161 1.5451-4.643 3.4726-4.3442-0.40774-0.65972-0.99551 0.82621v-0.63496l1.1213-1.6008-0.18029-0.46982-0.18028-0.46982 0.72816-0.72816 0.10999-1.531 0.11-1.531 0.44518-2.448 0.29059-0.29059-0.34131-0.63776-0.34132-0.63776 0.35948-0.22218 0.35949-0.22218-0.17826-0.28842-0.17826-0.28844 1.0891-0.90385 0.39127-0.73458 0.39128-0.73456-1.1738 0.96833v-0.68455l4.181-3.988-0.2384-0.0471-0.23839-0.0471 1.5875-0.29499 1.5875-0.29498 1.3262-0.22603 1.3262-0.22602 0.38788-0.6276h0.66392v1.337l2.6458 0.39103 1.9403 0.36294 1.9403 0.36295 1.6757 0.22409 1.6757 0.2241v-1.1799l0.70556 0.43606v-1.1781l1.4564 1.6657 0.3677-0.88634 0.32265 0.19941 0.32264 0.19941v1.2615l8.0452 0.43115 2.1853-0.62675v0.65631h2.1583l-0.43106-0.69748 0.51051 0.1959 0.51051 0.19591 2.9551-0.79574-0.21111-0.55014-0.21111-0.55015 1.572 0.41108 0.63036-0.57048 0.63038-0.57048v-1.4976l1.0983-1.5681h-1.836l-0.80842-0.80841-0.80841-0.80842-0.47698-5.1321 0.31478-0.56249 0.31479-0.56249 0.34569 0.67377 0.34569 0.67378 0.23026 1.2116 0.23027 1.2116 1.1593 1.281h6.2167l2.317-0.97369 2.5093-0.78649 5.8102-0.28782 2.2638 1.1065 1.8927 1.5614 7.0276 0.89559 0.53654-0.20589 0.53655-0.20589 0.44792-2.0015 0.44791-2.0015 0.46442 0.63512 0.46441 0.63512v4.4l-0.92952 0.73117-0.92952 0.73116h-1.63l0.1578 2.8222h-0.62474l0.19317 0.50337 0.19316 0.50337-1.0164 0.84354v-1.4559l-0.34874-0.21553-0.34873-0.21553 0.20749 0.5407 0.20747 0.5407-2.2506 1.8937 0.27472 2.3532h-0.50508l-0.35588-0.88194-0.0559 3.7044-0.0557 3.7042-0.1964-0.4964-0.19641-0.4964-0.48281 1.0256-0.48278 1.0256 0.17572-1.0583 0.17571-1.0583 0.33226-3.5278-0.39047 1.4993-0.39046 1.4993h-0.58317l0.20306-0.52917 0.20306-0.52916h-0.66567l-1.8518 3.7042-0.15439 0.88195-0.15439 0.88194-0.43316 2.2931-0.43316 2.293-0.18737 0.52917-0.18735 0.52917 0.1422 0.88194h-1.2069l0.23213 0.23212 0.23212 0.23213-0.67636 0.81497-0.16824 1.2125-0.16823 1.2125-0.31787 1.0583-0.31786 1.0583 0.1083 0.70556 0.10829 0.70555 0.1871 1.0583 0.18708 1.0583-0.40922 2.6458h-1.2315l-0.26653 0.26459-0.26654 0.26458h-1.838l-1.2474 3.4696-0.43617 0.26957-0.43616 0.26956-0.2951 4.6344h-0.99241l1.1518 1.7578 0.62838-0.38836 8e-3 1.9819 2.4608-5.6372 5e-3 -0.18001 5e-3 -0.18002 0.30803 0.48633 0.30804 0.48633 0.23902-1.7379 0.23903-1.7379 0.32408-0.5123 0.32408-0.51229 0.0744 5.9972 0.69716-2.4694 0.56896-0.58892 0.45812 3.1167 0.45811 3.1167 0.8227-3.8806 0.18915 0.52917 0.18914 0.52917 0.64082 2.2557 0.64081 2.2557 0.0763-0.31542 0.0762-0.31543 0.45978-2.7377 0.29829 0.31053 0.29831 0.31053 0.13834 0.88195 0.13834 0.88194 0.50455-1.5875 0.50454-1.5875 0.11371 1.7639 0.1137 1.7639 0.58978 0.59683 0.46088-2.7279 0.6601-1.0439 0.0102 0.88195 0.0102 0.88194 0.24228 0.88194 0.24229 0.88195 1.9205-5.9972 0.0519 0.88194 0.0519 0.88195 0.5781-1.7639 0.57808-1.7639 0.19109 2.1758 0.19109 2.1759 0.29387 0.29358 0.29386 0.2936 1.4487 0.56658 1.4487 0.56659 0.79156 2.7474 0.49012-2.4694 0.49011-2.4694 0.61898 3.7118 0.27553-0.17029 0.27553-0.17028 0.22446-2.2148 0.22447-2.2148-0.64606-3.8806-0.21314-0.70555-0.21313-0.70556 2.4592 4.8672 0.21649 1.6233 0.21648 1.6233 0.16903 0.51928 0.16904 0.51928 0.3405-0.51928 0.34051-0.51928 0.92836 1.2102 0.91031-0.85739 0.16075 0.43815 0.16075 0.43816 1.4439-0.77277 0.5133 0.83054 1.1609-1.1609 0.01-1.8899 0.67363 1.0583 0.46502-2.3077 0.30722-0.18987 0.30721-0.18986v2.5066l1.2347-0.1924 0.46472-0.28988 0.46472-0.28987 0.19573 0.74849 0.19574 0.74848 0.48607-0.40341 0.48608-0.4034v0.91493l1.7639-1.6571v1.6205l1.1731-0.96834 0.14181 0.42115 0.14182 0.42116 0.51086-0.19604 0.51087-0.19604 1.0494 0.87088 0.0818-2.0266 0.16134 0.61736 0.16133 0.61737h0.65382l0.0112-0.44098 0.0112-0.44097 0.96463 1.2721 0.18516-0.45967 0.18517-0.45967 0.70549 1.013 0.55605-0.46149 0.55606-0.46148v1.6068l1.4111-1.277v1.1677h1.0583l0.0276 0.88194 1.1398-2.4694 0.24681 1.0583 0.2468 1.0583 0.27416-1.5071 0.27415-1.5071 0.30644-0.18939 0.30645-0.18939 0.01 1.2764 0.34202-0.52917 0.34197-0.52916 5e-3 0.6551 5e-3 0.65511 0.98883-0.37945 0.19328 0.73916 0.1933 0.73916 1.0254-0.85103 0.17022 0.45569 0.17021 0.4557 0.55842-0.70556 0.55843-0.70555 0.0224 1.2347h0.70556l-0.031-2.9986-1.067-2.8222-0.65692-2.0807 1.3196-1.447 1.1409-2.258v-1.0349l-1.4401-3.3596-0.80238-5.1611-0.60769 0.54996-0.6077 0.54995-0.84603-2.5635v-2.4465l0.93261-1.9062 0.93262-1.9062 4.0262-3.4639 2.8222-1.8183 3.175-0.89239 11.289-0.0422 7.9324-3.4154 3.4371-3.0903 1.4911-3.4661 0.23248-1.978 0.23247-1.978-2.9381-3.1874-0.34302-0.9022-0.34299-0.90223v-0.73814l2.5459 0.47761 3.0237 1.469 0.62923-0.24146 0.62924-0.24146-0.53974-0.53973-0.53973-0.53974-2.9625-0.64794-2.9625-0.64797-2.2931-0.76885-2.2931-0.76887-1.7639-1.0737-1.7639-1.0738-5.7844-4.895-2.1168-3.1957-0.39801-1.9172-0.398-1.9172 0.7639-3.562 0.72621-1.3569 0.85712-5.2e-4 -0.12057 3.3023-0.12056 3.3023 0.7451 1.4605 0.74509 1.4605h0.1738l0.012-4.057 0.4734-1.669 0.47339-1.669 1.0003-0.83017 0.79615 0.79616-0.58942 2.442-0.58941 2.442v1.5329l0.36519 0.68236 0.36519 0.68237h1.426l1.3157-2.9986 0.24353-1.3229 0.24352-1.3229h1.3326v1.271l-1.7491 5.961-7e-3 1.0989-7e-3 1.099 1.4623 1.859h0.65435l4e-3 -5.1153 0.36739-1.3229 0.3674-1.3229h0.57625l0.3428 6.5264 0.76315 1.4942 0.76316 1.4941 1.5784 1.0209 2.0563 0.50616-0.28192-0.67016-0.28191-0.67016-0.99718-2.7543 0.18226-0.47495 0.18226-0.47496h0.6294l2.2104 4.1471 2.8288 2.5557h1.04l1.1573-1.7662-0.24783-2.6447-0.24782-2.6447h1.1051l0.18378 0.79375 0.18379 0.79375 0.175 7.0556h2.4694l-0.0239-1.0583-0.024-1.0583-0.97216-5.4711 0.83189-0.83189 0.18974 0.18976 0.18975 0.18974 0.5679 4.7172 1.1024 1.1024 1.5169-0.48146 1.686-2.5897 1.1937-3.7149 0.62582-0.38677 0.23247 0.60576 0.23245 0.60577-0.35023 1.7096-0.35022 1.7096h0.88198l1.0618-0.89349 1.0619-0.89349 0.84088-2.5479-0.41396-3.6026-0.47214-2.6458h0.83387l1.0764 2.5762 0.75008 4.2582 0.65627-0.81047 0.65627-0.81045v-1.9707l-2.9032-6.0506 0.41166-1.0728h0.6421l0.46211 1.1465 0.4621 1.1465 1.6676 2.69 1.5504-0.22065 0.10926-0.94553 0.10925-0.94552-1.806-4.5143v-1.1794h1.0464l0.9263 1.828 0.92629 1.828 0.51672 3.2232 0.40879-0.99312 0.40879-0.99309v-2.5536l-1.1567-4.1225 0.4042-0.40422 0.38129 0.23566 0.38129 0.23564 1.44 2.8226 0.41014 3.463-0.92844 3.3161-2.0522 2.7235-2.0522 2.7234-3.97 3.6283-7.793 3.8338 1.8233-0.21595 1.8233-0.21594-2.2e-4 0.66651-2.3e-4 0.66649-3.1598 4.025 5.2769 4.7793v1.4678l-0.50067 0.68477-0.50066 0.6848-5.8513 0.0966-0.31358 0.94076-0.31359 0.94076 0.44848 2.3906 3.5035 3.6349v0.99216h-1.1348l0.4427 1.7639h-1.0718v2.7138l-1.1781 2.4014-3.2317 3.6116-1.4807 3.0912-1.0796 5.6444-3.5033 7.7611-0.24858 1.4111-0.24857 1.4111 0.81093-1.2347 0.81094-1.2347 0.10706 2.2834 0.10707 2.2833 0.65701-1.0389 0.01 2.293h0.45138l0.41894-0.57294 0.41894-0.57293 0.45651 1.1021 0.4565 1.1021h0.61995l6e-3 -0.88194 0.6977-6.35 0.43248-2.7382 0.30856 0.48718 0.30855 0.48719 0.0942 6.7028 0.2538 1.0583 0.25381 1.0583 0.26309-1.0583 0.26308-1.0583 0.40304-1.0583 0.14245 0.70557 0.14245 0.70554 0.18124 0.52917 0.18125 0.52917 0.49115-0.88195 0.49116-0.88193 0.0125 0.80616 0.0125 0.80615 1.3419-0.71814-0.40588 1.5753 1.0692-0.87581 0.16871 0.1687 0.16871 0.16871 0.62267-2.6412 0.62266-2.6412h0.39465l-0.21413 2.293-0.21414 2.2931h0.5156l1.203-1.9403 0.018 2.6458h0.56372l1.7293-2.7572 0.3597 1.8753 0.69863-0.1412 0.78576-4.0922 0.27815 1.553 0.27816 1.553 0.47549-0.65028 0.4755-0.65027v2.9154l0.30982 0.19149 0.30983 0.19147 0.28019-1.1408 0.28018-1.1408 0.44412 3.5278 0.28323-0.61534 0.28323-0.61533 0.31581 0.19518 0.31581 0.19519 0.0133 0.77292 0.0132 0.77293 2.4325-2.8222 0.0556 2.1166 1.0094-2.1167 1.4553-3.5041 0.2872 0.46468 0.2872 0.4647 0.25038-1.6697 0.25039-1.6696 0.26378-0.71305 0.26377-0.71305-0.31554 6.0121 0.70101 0.43325 0.22138-1.3844 0.22137-1.3845 0.297-0.18355 0.29699-0.18354 0.47829 3.0737 0.47826 3.0737 0.80084-4.2334 0.8581 3.175 0.46709 1.223 0.46707 1.223 0.25702-1.5214 0.25704-1.5214 0.28617 0.29842 0.2862 0.29842 0.1442 0.88194 0.14417 0.88194 0.209-0.52916 0.20899-0.52917 0.5742-2.1167 0.11359 1.8521 0.11358 1.8521h0.58492l0.43735-1.6757 0.43736-1.6757 0.2096 0.70556 0.51922 2.8222 0.97663-2.9986 0.97666-2.9986 0.1366 2.1167 0.15843-0.70555 0.15846-0.70556 0.83598-2.4694 0.1764 2.0954 0.17637 2.0954 3.4826 1.8064 0.80306 2.8222 0.49287-2.6458 0.49289-2.6458 0.2504 1.7102 0.25038 1.7102 0.4014 0.40141 0.25151-0.25151 0.25151-0.25153 0.026-6.4937-0.25667-1.2347-0.2567-1.2347 0.5152 0.88195 0.51514 0.88194 1.4233 4.484 0.0248 2.9243 0.44096-0.79386 0.44095-0.79388 1.1743 1.1744 0.51258-0.42538 0.51257-0.4254 0.13936 0.4181 0.13936 0.41808 0.74842-0.40055 0.74843-0.40053 0.1234 0.37014 0.12338 0.37014 1.2213-0.46863v-1.2519l-1.2657-0.96539-1.2657-0.96541-2.354-3.68-0.93641-2.2635-0.93644-2.2635-0.51795-1.5875-0.51792-1.5875-0.16878-4.017-0.16881-4.017 0.53814-0.82132 0.53814-0.82129v-1.4823l0.4056-0.77056 0.40558-0.77057 0.21894-0.17639 0.21897-0.17639 0.42945-0.97722 0.42947-0.97722 0.88628-0.33697 0.88627-0.33696v-0.96643l0.66064-0.59788 0.66064-0.59786-0.33724-2.9918 1.0736-2.5694 5.0446 1.2976 3.8339-0.0344v-0.62486l2.7957 0.0942 2.7957 0.0943 0.24186-2.4128 0.24188-2.4128-4.2987-4.3481-4.2986-4.3481 0.11454-0.98298 0.11451-0.98299 2.1167-1.22 5.8264-0.78923 4.2306 0.47864 0.68511-0.87097 0.68512-0.87097 2.0474-0.91206 2.0475-0.91205 5.4544-1.1148 9.0095-1.0438 7.7355-0.54032 0.21952-1.0583 0.21953-1.0583 0.79115-1.5396 0.79116-1.5396 0.66556-0.17405 0.66559-0.17405 1.03-1.8142 1.03-1.8141 5.6667-7.7611 3.1506-3.5278 5.1986 0.1586-0.7525-0.6085-0.75242-0.60851-0.3941-0.77055-0.39404-0.77056v-2.4412l2.047-2.1912h3.299l2.0624 2.0624v3.2836l-2.1483 2.1483 0.12427 0.1243 0.12428 0.1243 7.015 0.73726 1.3276 0.20145 1.3276 0.20146-2.126-2.126v-3.2836l2.0624-2.0624h2.5587l0.97216 0.50271 0.97213 0.50272 0.42145 0.925 0.42146 0.925v1.7771l-0.39404 0.77056-0.3941 0.77056-0.74718 0.59323-0.74719 0.59323 0.18013 0.18015 0.18018 0.18015 8.9165 1.0991h1.2766l-1.5407-1.0791-0.32591-1.1805-0.32597-1.1805 0.17531-0.91715 0.17534-0.91715 1.764-1.764 2.3046-0.43236 2.1596 1.1168 0.5506 0.78606 0.55057 0.78607v2.6407l-2.2106 2.5177 0.13515 0.11997 0.13514 0.11997 11.642 1.5474 1.4111 0.34989-0.75247-0.63948-0.75245-0.63947-0.78814-1.5411v-1.8453l0.53284-1.0304 0.53282-1.0304 0.67868-0.36324 0.67871-0.36323h2.9229l2.0624 2.0624v3.2836l-2.1166 2.1166v0.21474l3.2816 0.82631 0.99483 0.51444 0.99481 0.51444 0.72186 0.77482 0.72184 0.77482 0.713 2.6478 2.4296 0.45579 3.093 1.9616 3.8065 0.80403 3.7555 1.8228 2.0308 2.8034 0.23527 1.5689 0.23526 1.5689-2.3306 14.144 0.50631 0.32037 0.50625 0.32036 1.6097 0.01 0.16529 0.52917 0.16533 0.52916 0.19021 0.44098 0.19021 0.44097 0.50311 0.88194 0.50305 0.88195 0.80603 0.19085 0.806 0.19085 0.122 0.86748 0.12197 0.86748 0.31178 0.38024 0.31176 0.38024-0.34554 1.2049-0.34558 1.2049v0.8866h1.0071l0.76722 0.97014 0.76721 0.97014-0.46154 6.35-0.71998 2.282-0.85559 0.67303-0.85563 0.67302 1.847 0.46355-0.43916 2.7461-0.32641 0.85862-0.32647 0.85861-1.172 0.22113-1.172 0.22112-0.1148 8.9944-0.55984 2.8222-0.55991 2.8222-2e-5 1.2012-8e-5 1.2012 1.292-1.1692 0.20159 0.20158 0.20156 0.20159 0.64376-1.0897 0.6437-1.0897 0.92054 0.35325 0.41336-0.9634 0.41338-0.9634 0.12296 1.0941 0.12292 1.0941 1.6282-0.31125 0.18778 0.71817 0.18783 0.71818 1.463-0.1102 0.4355-1.0514 0.43553-1.0514 0.40942 1.0016 0.40939 1.0016 0.2744-1.3754 0.27437-1.3754 0.33708 1.2347 0.33711 1.2347 0.65756-1.2347 0.65757-1.2347 0.0524 2.4694 1.0359-1.3696 5e-3 0.86117 5e-3 0.86118 0.34198-0.52917 0.342-0.52916 0.01 1.7195 1.9789-1.8959h0.42453l-0.19138 0.79375-0.19134 0.79375 0.47135-0.44097 0.4713-0.44098h1.1401l0.79309-1.4111 0.79311-1.4111h0.39994l-0.20039 1.2347-0.20037 1.2347h0.62614l0.3938-0.61736 0.39378-0.61737-0.38354 2.3002 2.2587-0.39792 0.2436-0.39411 0.24355-0.39411 1.6477 1.1741 1.5528 1.1263 0.3701-0.22874 0.3701-0.22873 0.0492-3.3098 0.27803-0.70556 0.27807-0.70555 0.25501 1.1496 0.25503 1.1496 0.73046-0.45144 2.3693-5.1992h0.43392l-0.2095 3.0868-0.20953 3.0868 0.72398-1.5733 0.72401-1.5733 0.77676-1.2489 0.77679-1.2489 0.1764 4.057 0.17637 4.0569 1.9074-3.5278 0.0334 7.3495 0.3319-0.3319 1.049-4.1954 0.37749-3.7042 0.3775-3.7042 0.20633-1.4957 0.20629-1.4957 0.31327 0.1936 0.31326 0.19361v11.558l0.30824 0.19049 0.30822 0.19049 0.24066-1.8454 0.24067-1.8454 0.20333-0.82727 0.20331-0.82727 0.30069 0.47449 0.30076 0.47449 0.01 2.6458h0.55086l0.48266-1.1465 0.48262-1.1465 0.14841 0.79375 0.14843 0.79375h0.59767l0.17793-0.44097 0.17796-0.44097 0.1114 2.1167 0.84473-3.3233 0.84476-3.3233 0.18884-0.38084 0.18886-0.38084-0.17063 2.682-0.17058 2.682-0.40884 1.3388 2.1662-4.057h0.36576l-0.20605 1.8521-0.20606 1.8521 0.62828-1.0583 0.62825-1.0583 0.19159 1.4111 0.19161 1.4111 0.46082-1.3262 0.4608-1.3262 0.64868 0.40092 0.0442 0.94932 0.0441 0.94932 0.28247-1.5875 0.28249-1.5875 0.108-3.5278 0.29405 0.88194 0.29409 0.88195 0.26448 1.0583 0.26447 1.0583 0.25379-1.0583 0.25382-1.0583 0.133 2.8222 0.30319 0.70556 0.30318 0.70555 0.0303-0.88194 0.0303-0.88195 0.34198-0.52916 0.342-0.52917 0.01 2.957 0.70554 0.43606v-1.1h0.70556v1.8814l2.4401-2.7634 0.0296 1.2347h0.65801l0.48112-1.5875 1.4614-3.4542 0.23413 0.66747 0.23416 0.66748 0.25807-1.721 0.2581-1.721 0.60362-1.4943 0.047 3.175 0.0469 3.175 0.56031-1.7639 0.56034-1.7639 0.2822 1.0583 0.28223 1.0583 0.30999 2.1167 0.30998 2.1167 0.27946-1.8521 0.27948-1.8521h0.61465l0.0275 0.79375 0.0272 0.79375 0.62151 1.7639 0.62142 1.7639 0.24913-1.3229 0.24911-1.3229h0.6736v1.3695l0.61743 0.38159 0.54822-2.9858 0.26337 1.8752 0.26342 1.8752 0.16684 0.16683 0.16682 0.16683 0.41394-1.6439 0.41397-1.6439 0.17058 0.17058 0.17055 0.17058 0.27093 1.548 0.27099 1.548 0.85865-3.0868 0.85868-3.0868h0.42063l-0.22368 2.293 0.47766-1.8628 0.47757-1.8628 0.22447-0.2245 0.22453-0.22449v3.2467l0.34401 0.90491 0.34406 0.90491h0.99515l1.0105 0.52059 1.0104 0.52059 0.39124 1.3315 0.39126 1.3315 0.42484-2.1167 0.42487-2.1167 0.10769-0.35278 0.10774-0.35278 0.26341 1.68 0.26342 1.68 0.28363 0.1753 0.28366 0.1753 0.24241-2.2636 0.24244-2.2636-0.25464-1.8848-0.25461-1.8848-0.34074-0.64757-0.34071-0.64758 0.18034-0.18036 0.18037-0.18036 0.68182 1.3571 0.68178 1.3571 0.54821 1.7639 0.54817 1.7639 0.46736 2.7734 0.29795-0.48207 0.29794-0.48208 0.5646 0.46856 0.56454 0.46856 0.11049-0.13847 0.11051-0.13846 2.4693-4.4216c0.31295 0.66502 1.8734 4.304 1.8734 4.304l3.7917-0.2378 0.45775-4.9135 0.99604 4.7252 4.9407-0.31754 1.7414-3.7447s0.63573 3.817 1.2203 4.1047l0.66071-0.59795 0.66075-0.59794v1.1677h0.56443l0.84667-0.84666v1.1994h1.7163l0.26238-0.79375 0.26244-0.79375 0.24197 0.88195 0.24198 0.88194 0.19548-0.52917 0.1955-0.52916 0.25648-1.0583 0.25649-1.0583 0.26699 0.88195 0.26694 0.88194 0.0575-0.70556 0.0575-0.70555 0.3485 0.87345 0.34854 0.87345 0.2961-0.47909 0.29612-0.47909 0.2446 0.77074 0.24461 0.77074 0.87469-0.72591 0.37989 0.37989 0.37989 0.3799 0.24294-0.76542 0.24294-0.76541 1.0396 1.2834 0.18368-0.44098 0.18362-0.44097h0.64675v1.1677l1.3379-1.2108 0.1695 0.46254 0.16946 0.46254 0.51626-1.9403h0.60692l-0.18938 0.49348-0.18931 0.49348 0.33586 0.20759 0.33589 0.20759 0.43966-1.0614 0.43963-1.0614 0.72382-0.44734-0.20939 1.2014-0.20945 1.2014 1.3147-2.8222 0.0314 0.88194 0.0317 0.88195 0.26924-0.42356 0.26924-0.42355 1.6096 3.5085 0.66339-0.40999 0.0276-1.5459 0.48054 1.1042 0.48051 1.1042 0.38759 0.23956 0.38764 0.23955 0.0241-0.99095 0.0241-0.99096 0.7656 1.5875h0.59775v-1.1994l0.41849 0.41852 0.41854 0.41852 1.2796-1.1581 0.0558 1.3441 1.1641-3.175 0.1838 1.4111 0.18389 1.4111 1.6504-3.3514h0.2455l-0.17176 1.3229-0.17177 1.3229 0.7674-1.4111 0.76737-1.4111 0.1321-0.14699 0.13211-0.14699 0.34073 0.34071-0.33538 1.2114-0.33536 1.2114 0.51776-0.68479 0.51782-0.68479v-0.5707h0.70556l0.0228 2.2931 0.47213-0.6221 0.47209-0.62209 0.23202 1.4509 0.23198 1.4509 1.0388-0.86211 0.0706-2.9122 0.25299-0.88195 0.25305-0.88194 0.49636 3.6298 0.52197 0.43318 0.52194 0.43318v-2.5142l0.70554-0.43606v3.6111l0.29049-0.17953 0.29048-0.17952 0.45255-1.517 0.45254-1.517 0.27535-0.70556 0.27533-0.70555 0.50922 1.9403h0.49276l1.2094-2.4998 1.2093-2.4998 0.64812-0.40055-0.39592 5.9294 2.3879-4.7108 0.72194-0.44616 0.0818 4.4514 0.16132-0.61736 0.16132-0.61737h0.69548l-0.21997 0.35594-0.21998 0.35593 0.24387 0.76835 0.24384 0.76835 0.88138-1.2053 0.60311 1.2709 0.60307 1.2709 0.11705-0.11706 0.11705-0.11705 0.38354-3.5276 0.38352-3.5276 0.22211-1.5474 0.2221-1.5474 0.37867 0.66544 0.3787 0.66544-0.0832 6.6356 0.28586 0.7391 0.28585 0.7391 0.24556-0.70556 0.24556-0.70555 0.13145-0.44098 0.13149-0.44097h0.72771l0.028 2.2931 0.56687-1.0475 0.56679-1.0475 0.31914 0.86261 0.31909 0.86261 0.32922-0.52068 0.3293-0.52067 0.01 1.2764 0.6453-0.39882 0.13218 0.39661 0.13224 0.39661 0.63355-2.6875 0.63359-2.6875h0.58656l0.16232 0.44097 0.16227 0.44097 0.19116-0.88194 0.19114-0.88194 0.40756-2.4694 0.40762-2.4694 1.3397-2.4694 0.20712-0.54057 0.20709-0.54056 0.99499-0.44044 0.99502-0.44043 4.0897-2.9286-0.67969-0.28315-0.67968-0.28315-1.871-0.67289-1.9274-2.527-0.21066-2.632-0.24929-1.4111-0.24926-1.4111-0.30737-0.39319-0.30739-0.3932 0.0465-1.1943 0.0466-1.1943-0.22763-1.4039-0.22756-1.4039-0.34748-1.2904-0.3475-1.2904 0.0324-1.1862 0.0325-1.1862-0.24442-3.7042-0.24445-3.7042 8e-3 -2.6638 0.54727-0.83526 0.54732-0.83525-5.2139-0.26329-0.90426-0.84952-0.9043-0.84951 0.0114-0.90865 0.0114-0.90864 0.44757-0.58856 0.44762-0.58855 1.9224-0.46978 1.9225-0.46978 0.11364-0.99097 0.11364-0.99098 0.59192-0.19201 0.59193-0.19201 2.087-0.93515-1.9292-0.48421-0.34065-0.63651-0.34065-0.63652 0.8763-0.29391 2.4067 0.54109 1.9745 1.4598h0.33668l-0.63585-2.293-0.63585-2.2931h0.90604l0.79312 1.2833 0.79311 1.2833v2.0552l0.95608 0.68076 0.95601 0.68077 0.55902 1.178 0.55898 1.178 0.0624 2.445 0.0624 2.4449 0.44593 1.4993 0.44595 1.4993h-0.30858l0.32983 0.61736 0.32988 0.61736 0.20624 1.2347 0.20625 1.2347 0.67871 2.2049 0.6787 2.2049h-0.39748l1.2771 1.4111h-0.47533l2.896 5.468 0.15287 0.15377 0.1529 0.15376 3.3294-0.1724 4.9473-1.4136 7.4083-0.65412 3.7407-0.77096 2.9621 0.47075 1.5172 0.22258 1.6578 0.51631 5.1668 2.3758h0.65402v0.57251l1.3564 1.456 2.1144 4.1888 0.42598 2.4259-0.27276 0.96343-0.27273 0.96343-0.70554 0.0636-0.2795 0.49943-0.27948 0.49944 0.36766 0.68704 0.36772 0.68703 4e-3 0.64056 4e-3 0.64055 0.52702 1.0105 0.52697 1.0105v1.0875l1.7639 2.3126v0.43856l0.77547 1.6563 0.77546 1.6563-0.1182 3.4882-0.75104 3.6177 0.34237 0.85674 0.34232 0.85675 0.0335-0.70556 0.0335-0.70555 0.45969 0.60508 0.45966 0.60508 0.82211-0.82211v1.3088l0.70557-0.63852 0.70553-0.63852v1.1677h0.56447l0.84664-0.84667v1.1994h1.7164l0.26239-0.79375 0.26244-0.79375 0.24196 0.88195 0.24198 0.88194 0.19548-0.52916 0.1955-0.52917 0.25646-1.0583 0.25651-1.0583 0.26699 0.88195 0.26694 0.88194 0.0575-0.70555 0.0575-0.70556 0.37066 0.88194 0.37062 0.88195 0.18339-0.49438 0.18333-0.49438 0.45646 0.84716 0.45645 0.84715 0.24366-0.62772 0.24357-0.62773 0.44276 0.60548 0.44275 0.60548 0.5052-1.5917 0.5198 0.64171 0.51983 0.64171 0.18364-0.44098 0.18362-0.44097h0.64675v1.1677l0.66897-0.60541 0.66898-0.60541 0.16949 0.46254 0.16946 0.46254 0.51626-1.9403h0.62907l0.0156 0.79375 0.0153 0.79375 0.69839-1.3229 0.6984-1.3229h0.42412l-0.19843 1.1465-0.19849 1.1465 0.65738-1.4111 0.65736-1.4111 0.0509 1.0583 0.051 1.0583 0.24328-0.61421 0.24331-0.61421 1.6226 3.537 0.66339-0.40999 0.0138-0.77294 0.0138-0.77293 0.96102 2.2084 0.77522 0.47912 0.0482-1.9819 0.38277 0.79375 0.3828 0.79375h0.59775v-1.0583h0.70556v0.74719l0.35277-0.21803 0.3528-0.21802v122.81h-338.66zm-217.81-119.55 0.48493-1.5443 1.0963-9.6114 0.44298-2.4577 0.54656 1.3994 0.0496 11.154 0.60608-0.37458 0.45136-3.8404 0.23852-0.62158 0.23853-0.62158 0.26629 0.67976 0.2663 0.67976 0.0808 2.8222 0.76074-1.4111 0.76075-1.4111 0.41022 2.1166 0.83787-1.4111 0.0427 0.88194 0.0427 0.88195 1.6323-6.2236 0.25947-0.23964 0.25947-0.23963-0.21161 2.8222-0.21162 2.8222 1.2629-2.4694-0.15181-1.6757-0.15182-1.6757h-2.1686l1.7105-1.8777-0.48041 0.27847-0.48042 0.27847-0.29315-0.47434-0.29316-0.47433 0.75159-0.90561h-0.79195v-1.0108l-0.70555-0.22393-0.70556-0.22394v-0.56853l-3.2442-0.0652-4.4528 2.019-0.39721 0.7422-0.39722 0.7422h-0.98311l-1.1087 1.1087 0.0224 1.1843 0.51795-0.68479 0.51795-0.68478 0.0332 8.4252 2.05-3.8806 0.103 7.4084zm506.21-0.80591 0.17475-0.17477 0.47742-2.2653 0.47739-2.2653 0.27045 1.68 0.27051 1.68 0.264 0.16315 0.26398 0.16315 0.2214-1.8432 0.22141-1.8432 8e-3 -2.492-0.47746-1.8408-0.4775-1.8408h0.29366l2.1228 4.6816 0.76861-1.1454 0.76856-1.1454 1.8341-2.2146 0.2272-0.93423 0.22714-0.93423-0.52469-1.006-0.52472-1.006-4e-3 -0.56269-4e-3 -0.56268-0.7003-0.63378-0.70035-0.63377-3.1478 1.2022-3.0363 0.37047-3.8805 0.0534-1.6685-0.20866-1.6685-0.20867-0.35994-0.22247-0.35999-0.22247-0.0698 1.6291-0.1886 3.8806-1.4135 3.4184-1.4134 3.4184 0.17365 0.90836 0.17362 0.90836 0.53319 0.32952 0.27312-1.4929 0.27308-1.4929 0.29406 2.0812 0.294 2.0812 0.12587 0.12587 0.12586 0.12587 0.45812-2.0306 0.45813-2.0306 0.27924 0.70556 0.27927 0.70556 0.1234 2.4694 0.97843-2.9986 0.97848-2.9986 0.79145 0.1764v-1.3695l0.70554-0.43605v2.8179l0.34404 0.90491 0.34406 0.90491h0.99515l0.97533 0.50601 0.97531 0.50601 0.29432 0.46412 0.29433 0.46414 5e-3 0.85254 5e-3 0.85255 0.17478-0.17478zm-415.02-1.9161 0.19579-1.0253 0.28988 0.8597 0.28989 0.8597 0.96893-1.3251v1.3502l0.60384-0.86211 0.60385-0.86211 0.21353 0.87181 0.21352 0.87181 0.45997-1.4111 0.45996-1.4111 0.47858-0.52853-0.2473 2.6452 1.169-1.4111 1.0151-2.1167-0.208 1.3229-0.20799 1.3229h0.37041l0.71989-1.4111 0.7199-1.4111h0.3945l-0.4649 2.1167h0.3863l1.0526-1.9403 0.044 3.175 0.68986-0.88195 0.68987-0.88194 0.016 2.1755 0.46424 0.46425 0.47343-0.39291 0.47344-0.39291 0.0496-2.9122 0.30318-0.70556 0.30319-0.70556 0.0604 2.4694 0.34498 0.52917 0.34499 0.52916-0.41166-3.5278-0.47022-2.6458-0.47021-2.6458-0.247-2.5365-0.24703-2.5365-5.0105-1.5219-3.1928-1.618 0.12315 1.5416 0.12314 1.5416-0.75826 1.5664-0.75827 1.5664-2.4617 1.8776-1.6986 2.5887 0.64498 7.3082 0.90501 1.0923 0.19577-1.0253zm402.36 0.81945 0.21312-0.21314-0.18528-0.46302-0.18527-0.46302-0.0279 0.67616-0.0279 0.67615 0.21315-0.21313zm-207.13-0.32196 0.0924-0.11167 0.19492-1.9835 0.195-1.9835-2.7453-2.0303-0.0243-0.52917-0.0243-0.52916-0.45374 1.0583-0.45376 1.0583 0.5311 0.39295 0.53102 0.39295 0.0536 3.6234 0.52917 5e-4 0.0572-1.9403 0.82466 1.7672 0.2999 0.46281 0.29993 0.46281 0.0924-0.11166zm-297.5-0.2984 0.57962 0.0103 0.42826-1.116v-2.9997l0.51169-0.51169 0.82324 2.3344 2.5486-5.4282 0.32116-0.19849 0.32115-0.19848 0.35734 0.88634 0.0278-0.61736 0.0279-0.61737h-0.91722l-0.41342 0.41343-0.41343 0.41343-1.3092-2.9242-0.8273 0.8273v-0.93306l-1.0191 0.8458-1.2234-1.4288-0.5289 0.32688-0.24036-0.75729-0.24035-0.75729-0.28732 0.4649-0.28733 0.4649-1.1121-0.92297v-0.97194l-0.44098 2.7e-4 -0.44097 2.6e-4 -1.0245 0.88105-1.0245 0.88104-0.151 2.4884-1.1946 1.32-0.04 2.8953h-0.55632l0.18666 0.71378 0.18666 0.71377 1.004-1.2512-0.11193 1.481-0.11192 1.481 1.3458-1.1982-0.15383 1.0824-0.15384 1.0824 1.4465-0.1656 0.83022-0.0588 0.11582-0.60142 0.11583-0.60142 2.4659 2.2405 0.57961 0.0103zm493.42 0.0103h0.28647l1.6038-2.1694 0.86082 1.1772 2.019-5.1462 0.4817 1.3732 0.25807-1.721 0.25811-1.721 0.30181-0.74716 0.30178-0.74716 0.0924 6.7028 0.9045-3.3628 0.19593-0.1959 0.19592-0.1959 0.26977 1.1718 0.26972 1.1718 0.51562-1.7639 0.0706-2.6042 0.38137-0.2357 0.38137-0.23569-0.23191-0.93165-0.23191-0.93166-2.0628-2.024v-0.61981l-1.1466-0.48105-1.1465-0.48105-0.70556 0.51489-3.7762 0.88561-2.9266 0.198-1.2402 0.0672-2.1112 4.3584v0.9333h-0.71697l-0.60237 1.2632-0.60238 1.2632-1.9754-0.28993-0.14669 0.73387-0.14666 0.73387-0.1489 0.97014-0.14886 0.97014h0.60772l8e-3 -0.26459 8e-3 -0.26458 1.4502-1.7639-0.17021 1.4993-0.17023 1.4993h0.59084l0.42222-1.2347 1.7092-2.0871-0.14322 1.1318-0.14325 1.1318h0.92636l0.33295-2.2049 0.33301-2.2049 0.95356 3.175 0.26262-0.88195 0.26265-0.88194 0.12 2.8222 0.26953 0.68904 0.26956 0.68904 0.27776-1.2182 0.27779-1.2182 0.69088 3.1488 0.48104-0.86882 0.48106-0.86882 0.0122 1.1465 0.0124 1.1465h0.28644zm30.999-0.40665 0.46426-0.38529v0.77448l1.7169-0.65275 0.14253 0.4233 0.14256 0.4233 0.5865-0.48416 0.58655-0.48417v-2.1058l0.98055 0.37626 0.26141-1.1205 0.26143-1.1205 0.14396 0.70556 0.14401 0.70556 0.18688 0.86354 0.1869 0.86355 0.64627-1.0215 0.01 0.9913 1.4111-1.277v1.6069l0.47342-0.39292 0.47342-0.39291 0.23 0.22996 0.22993 0.22996 0.67672-0.61242 0.67675-0.61243 0.14608 0.64399 0.14608 0.64398-0.0846-3.2914-0.0845-3.2914-0.19883-0.19881-0.19878-0.19881-4.0732-1.6593-0.50699-4e-3 0.19081 0.49732 0.19085 0.49733-0.52102 1.002-0.52104 1.002-1.3848 1.5875h-0.43402l-3.3136 3.175h-1.0529l-1.2903 1.1677 0.01 1.1254 0.33462-0.52916 0.33464-0.52917 1.2137 1.2134 0.46424-0.38529zm-387.71-0.0637 0.23518-0.23519-0.23518-0.23519-0.23519-0.23518v0.94074zm83.273-0.94499 0.54137-1.2305 0.39693 1.2347 0.39695 1.2347 0.10274-3.1428 0.10276-3.1428-0.27916-0.24881-0.27911-0.24881-3.2606-0.78877-1.0153-0.38961-2.6068 3.7849-1.7604 1.6538 0.0111 0.73226 0.0111 0.73225 0.81542-1.3262 0.81539-1.3262 0.34084-0.34084-0.24654 2.2877 2.5218-4.9388-0.17886 1.8631-0.17883 1.8631 0.21645 0.56406 0.21646 0.56406 0.66836-1.1925 0.66839-1.1925-0.17796 1.8521-0.17798 1.8521h0.337l0.39005-0.97014 0.39004-0.97014 0.33862 1.2305 0.33861 1.2305 0.54137-1.2305zm-199.75 0.7098h0.17639v-0.35278h-0.35278v0.35278zm205.32-0.60093 0.53088-0.75792 0.35751-0.81988 0.3575-0.81988-0.1988 1.3229-0.19881 1.3229h0.37041l0.71988-1.4111 0.71991-1.4111h0.39449l-0.23246 1.0583-0.23244 1.0583h0.38632l0.52631-0.97014 0.52628-0.97014 0.0266 0.70555 0.0266 0.70556 0.50416-0.88195 0.50417-0.88194 0.0124-0.21868 0.0124-0.21869-4.3004-0.84605-1.2232 1.107h-1.8847l0.0834 1.2347 0.48964 2.1167 0.54128-2.2931h0.6495v2.6264l0.53086-0.75792zm-130.15-1.2512 0.87228-1.6757h0.21706l-0.22886 2.2931 1.1677-2.4694 0.52418 1.7639 0.0704-2.9527-0.6593-1.7341 1.0121-3.3628-0.0304-2.5337-2.2778 2.4215-2.2778 2.4214 0.0496 6.446 0.30319-0.70556 0.30319-0.70555 0.0824 2.4694 0.87228-1.6757zm443.07 1.4993h0.1764v-0.35278h-0.3528v0.35278zm-327.06-0.35278h0.13864l0.2101-0.54749 0.21008-0.54749-0.34872 0.21554-0.34875 0.21553v0.66391zm-264.19-0.35278h0.17638v-0.35278h-0.35277v0.35278zm301.31-0.0956 0.21312-0.21313-0.18529-0.46303-0.18528-0.46302-0.0558 1.3523 0.21314-0.21314zm-242.57-1.8447 0.65323-1.4111 0.0524-1.6463-0.86248 0.2875-0.23915 0.85579-0.23915 0.85578-0.018 2.4694 0.65323-1.4111zm114.15 1.2347h0.14242l1.7758-3.5043v-8.8429h-1.3636l-0.37428 1.2347-0.76676 9.091 0.444 2.0215zm-127.73-0.35272h0.17639v-0.35278h-0.35278v0.35278zm30.339 0h0.17638v-0.35278h-0.35277v0.35278zm200.13-0.74931 0.11264-0.9257-0.55349-1.191-0.55348-1.191 0.18233 0.6482 0.18232 0.6482 0.2585 1.4685 0.25852 1.4685zm279 0.27894 0.23516-0.23518-0.23516-0.23519-0.23519-0.23518v0.94074zm-348.25-0.58796h0.17639v-0.35278h-0.35277v0.35278zm77.964 0h0.1764v-0.35278h-0.35277v0.35278zm-246.94-2.4694h0.17638v-0.35277h-0.35277v0.35277zm4.0569-39.864h0.47037l-0.23518-0.23519-0.23519-0.23518-0.47037 0.47037zm321.69-1.0583h0.30957l0.85889-1.0349 0.67823-5.3589 0.67826-5.3589-0.19429-0.61208-0.19425-0.61209-2.1158-0.8764-0.12039 0.13568-0.12038 0.13568-0.49022 6.4636 1.4592 0.46312-0.0122 0.76998-0.0124 0.76997-0.50437 2.2931-0.50438 2.2931-0.0122 0.26458-0.0124 0.26458h0.30959zm-393.44-6.7028h0.17175l-0.43852-8.9958-0.71087-2.4502-0.71086-2.4502-3.0389-6.0356-4.4006-6.7028-4.8291-6.4387-5.108-0.75813-0.1354 0.1414-0.21201 1.9174-0.21202 1.9174 0.44426 0.29414 0.44425 0.29414-1.3909 1.0605-0.41634-0.15976-0.41633-0.15976-0.17812 0.68114-0.17813 0.68115h-1.8242l2.6099 5.2745 2.1468-0.1592-0.0405 0.70556-0.0405 0.70555-0.24569 0.57532-0.24568 0.57532 1.1064 0.38569 1.1064 0.3857-0.43502 0.70388 1.1037 1.6844-0.22213 0.57888-0.22214 0.57887h0.60881l0.45696 1.0323 0.45695 1.0323 8.984 8.7043 5.8399 4.4005zm371.42-1.4826 1.071-0.10492-0.14464-0.52916-0.14463-0.52917-0.1556-1.1214-0.15562-1.1214 0.79734-2.416 1.7508-1.6448 2.9338-0.39923 0.13229-0.39887 0.13227-0.39887-1.6182-0.36763-18.697-2.6653-2.5492 0.49313-0.21828 1.843-0.21826 1.843-0.71842 0.23947v1.6286l1.6425 0.41224 1.8853 1.7472v1.7976l1.2347 0.01 1.538 0.4125 0.77486-1.8011 0.77484-1.8011 2.4049-2.1115h4.1628l0.90493 0.34405 0.9049 0.34405v5.8971l0.25191 0.25191 0.25188 0.2519 1.0711-0.10492zm-153.8-0.63408h0.17639v-0.35278h-0.35277v0.35278zm167.72-3.3402 2.4963 0.0112v-0.72794l-0.71194-1.1678-0.71197-1.1678-2.5364-1.0598-0.4373 0.16782-0.43733 0.16782-0.38484 1.5161-0.38481 1.5161 0.30729 0.3665 0.30726 0.3665 2.4964 0.0112zm-360.14-1.021 1.0694-0.21387 5.0823-2.2138 11.707-5.8963 3.7474-3.6888 2.975-4.6164 1.867-3.7042h-0.41588l1.4623-1.859v-0.96318l-0.88194-0.0836-0.45339 0.0582-1.7627-1.6336-1.1353-0.43566v-0.68606l0.31966-0.19756 0.31966-0.19755-0.18442-0.70521-0.18441-0.7052h0.78784v-0.70556h-0.94074v-2.1394l2.2744-1.0793-0.3576-1.3675h1.4518l0.22037-0.35656 0.22036-0.35656 1.5218 1.0659h0.98773l-0.40206-0.48445-0.40206-0.48446 0.38348-0.99932-2.5065-0.90636-4.3794-3.5147-1.423 0.39225-8.9419 1.2151-1.1472 1.8929-1.1472 1.8928-3.3217 6.8171-3.9039 9.8778-2.8998 9.4619-0.57552 3.2481-0.57551 3.2481 0.23747 0.61885 0.23748 0.61885 1.0694-0.21387zm312.46-0.75214 0.0968-0.0778 0.71249-2.5712 0.7125-2.5712-0.20738-4.2424-7.7611-2.3126-2.3743-0.0448-1.1194 1.2222-1.1195 1.2222-2.8848 5.4932 0.9262 2.1764 12.216 1.587 0.70557 0.1968 0.0967-0.0779zm6.1246-0.47404 2.0605-0.11932-0.34851-0.65124-0.34854-0.65124v-1.8324l-1.0583-0.40612v-1.005l0.54221-0.20807 0.54221-0.20806 1.0322-1.9961v-0.38782l-1.5875 5.3e-4 -2.1069 3.7034-0.0355 0.70555-0.0355 0.70556-0.3584 1.2347-0.35841 1.2347 2.0605-0.11931zm-334.48-15.076 0.88194-0.19799 2.6907-2.5982 3.224-4.8824 5.2253-10.694 0.39824-6.4109 0.39825-6.4109-0.21877-0.21876-0.21876-0.21876-2.9456 2.5213-5.3784 2.7566-10.361 4.1331-0.37466 4.9604-0.27648 4.3173-0.27649 4.3173 2.6832 3.7126 2.492 4.4082 0.58744 0.35136 0.58743 0.35136zm63.282-0.85594h0.17639l0.21802-0.35277 0.21803-0.35278h-0.35278l-0.21802 0.35278-0.21803 0.35277zm-21.125-7.0556h0.17639v-0.35278h-0.35278v0.35278zm-68.296-5.2971 0.49564 5e-3 -1.2921-1.4278-0.75161 0.75161 0.52622 0.33268 0.52622 0.33269 0.49565 5e-3zm93.343 5e-3h0.17638v-0.35278h-0.35277v0.35278zm-2.8222-0.35278h0.17639v-0.35277h-0.35278v0.35277zm2.4694-0.35277h0.17639v-0.35278h-0.35278v0.35278zm0.37857-0.94066 0.50337-0.19316v-0.62967h1.0583v0.70555h1.8314l2.0492-1.4592v-1.0103h0.88862l0.44917-0.71925 0.44918-0.71924 0.68248 0.42179v-0.74719h0.98931l0.73788-2.1167h0.74226v-2.4694h-2.1167v-1.3247l-0.44098-0.34595-0.44097-0.34595-5.6444 0.57916-5.2917 1.3803-3.3514 1.5013 0.0818 1.2017 0.16716-0.64765 0.16717-0.64765 1.6601 0.41665 1.8073-0.82346 0.24974 0.24974 0.24973 0.24974-0.91316 1.4622 0.76348 0.76348v1.2478l0.96241-0.36931 0.28575 1.1659 0.28576 1.1659-0.0656 0.66439-0.0656 0.66438 0.38274 0.46118 0.38275 0.46117zm-102.68-1.5288h0.17639v-0.35278h-0.35278v0.35278zm5.7101-0.64258 0.18634-0.46618-1.6071-1.7107-0.36622 0.36622 1.5449 1.0821 0.0279 0.59735 0.0279 0.59736 0.18634-0.46619zm121.64-0.063h0.17639v-0.35278h-0.35277v0.35278zm-106.22-1.0715 0.31528-0.29991 0.31804-10.094-0.36027-2.8012-0.36026-2.8012-0.81959-0.64282-0.81959-0.64283-8.3497-4.3555-4.5267-4.4603v-0.69982h-1.7639v0.61736l0.44098 2.2049h1.338l0.3768 0.82698 0.3768 0.82699 1.5243-0.25957 0.95479 0.63253-0.80323 1.5008h-0.63637l0.38618 2.3797-0.78332 0.48412v0.49434l2.2259-8e-3 0.14382 0.41893 0.14382 0.41892-0.70142 0.70143-0.70142 0.70142 0.20079 0.76785 0.2008 0.76784-0.39427 0.24368-0.39428 0.24367 1.1707 3.6608 5.3375 4.1604 5.6444 5.3116 0.31528-0.29991zm74.121-1.7507h0.17639v-0.35277h-0.35278v0.35277zm-12.633-0.37514 0.77294 0.0224 0.21861-0.35373 0.21862-0.35373 1.3255 0.70936 0.46696-0.75556 0.4671 0.17924 0.4671 0.17925 3.014-4.0146 3.8695-4.0784 2.3786-1.4701-0.1413-0.1413-0.1413-0.14129-3.1059 1.7061-8.1139 3.1809-6.7028 1.954-0.59268 0.49992 3.2034 2.204 0.81129 0.32553 0.81129 0.32554 0.77293 0.0224zm35.584-2.0943h0.15557v-1.1l-0.71707 0.44317 0.20297 0.3284 0.20296 0.3284zm-88.628-2.8203 0.41289 2e-3 5.6444-2.2619 0.93234-0.9169h0.90559l3.5584-3.7625 1.7376-3.4694 0.80284-2.4398 0.80285-2.4398-0.82598-1.3226 0.41831-0.67686h1.0167v-0.70536h-1.4654l-2.047 2.047 1.1369 0.43628-2.71 2.6319-0.27945 0.0441-0.27946 0.0441-1.0108 0.0882-0.22394 0.70556-0.22393 0.70555h-0.96324l-0.22394-0.70555-0.22394-0.70556h-1.928l-0.33514-0.31-0.33514-0.30998-1.3275-0.23601-1.3275-0.23602-2.7732 5.7346 0.15044 1.6475 0.15044 1.6474 0.4209 4.7625 0.41289 2e-3zm73.35-2.52 1.4993-0.32638 0.50656-0.1542-0.29362-0.47255-0.29362-0.47256-1.459 0.74431-1.459 0.7443v0.26344zm-46.364-5.299 2.0543-3.0105 3.3607-4.3675 3.8196-4.1256-6e-3 -3.7862-0.67449-2.218-0.67448-2.218-2.1934-3.4182-1.9092-1.8056-1.9091-1.8056h-0.59918l-5.0988 4.6535-0.32658 0.61022-0.32658 0.61021 0.53514 1.8255 0.53513 1.8255h1.1261l1.354-1.2254 0.896 1.2254h0.80416l0.01 1.2347 0.64098-1.013 1.0493 0.87084 0.45723-0.73981h1.445l-0.50664 1.2347-0.0164 0.35278-0.0164 0.35277 0.0556 0.79375 0.0558 0.79375h0.65516l1.1541-1.1541 0.39599 0.39598 0.39598 0.39598-0.78141 0.83178-0.78141 0.83177 0.43176 1.1252-0.35239 0.62968-0.35238 0.62968 0.67412 1.2596-1.9487 0.74088-1.5398-0.70156-1.1565 1.278 1.0425 0.40006-0.68406 1.872-0.68407 1.872-0.34832 0.11665-0.34833 0.11665 0.35091 0.65569 0.35092 0.65569-0.74756 0.46202-1.7238-0.43264v4.379zm-12.691 1.4957 0.63871-0.34183 3.648-3.28v-0.93415l-0.88195-0.31624-0.66222 0.34153-0.66223 0.34153-0.2483-0.40177-0.24831-0.40177-0.88502 3.0238-1.3375 2.3107zm26.953-0.74116 1.1465-7e-3 4.9389-0.68551 6.1077-1.4799 0.40904-1.5248 0.01-0.94074-0.42401 0.14134-0.42402 0.14133-1.2105-1.0364 0.31498-0.82843 0.31497-0.82844h-1.0409v-0.6315l1.692-1.6284-0.53232-1.4442 0.15514-0.44097 0.15513-0.44097h-1.1171v-0.59973l-2.2741 0.0706-9.3399 11.642-0.0276 0.52916 1.1465-7e-3zm30.759-1.0514h0.50835l0.21803-0.35278 0.21803-0.35277h-1.4528v0.70555zm31.065 0h0.17639v-0.35235h-0.35277v0.35278zm-15.025-1.724 0.30985-0.48927 1.8273 0.3493-0.20324-0.80979-0.20325-0.80979 2.5348-0.47554v-0.5646l-0.88195 0.1338-0.46444 0.28999-0.46445 0.28999-0.20865-0.20865-0.20865-0.20866-0.51161 0.4246-0.51161 0.42459-0.44169-0.60404-0.44169-0.60405h-1.1569v-1.2015l-2.8222 2.7558v0.56834l1.5875-0.88793 0.6389-0.51514 0.6389-0.51513 0.32584 0.51513 0.32584 0.51514 0.0216 2.1166 0.30985-0.48927zm18.553-1.8034h0.17639v-0.35277h-0.35278v0.35277zm10.583-0.70555h0.17639v-0.35278h-0.35278v0.35278zm-126.58-0.37086 0.0692 0.0181-1.3862-4.0291-2.208-4.7903h-0.57896l0.40612 1.0583h-0.78104v0.94074l-2.1167 0.2352v0.94074h-1.3695l-0.46578-0.75366-0.4505 0.17288-0.45049 0.17287-0.95735-0.82681 1.7533 2.1011 1.3604 1.0739 7.1062 3.668 0.0692 0.0181zm105 7e-3 0.29398 0.0111-0.13693-0.41078-0.13692-0.41079-0.85256-0.55935-0.85255-0.55936 0.6955 0.95905 0.6955 0.95906 0.29398 0.0111zm-4.4685-0.45926 0.23518-0.2352-0.47037-0.47036v0.94074zm17.981-0.2352h0.10652l-0.20305-0.52916-0.20307-0.52916h1.4866v-0.97609l-1.7639-0.33718v1.9012l0.23519 0.23518 0.23518 0.23518zm8.125-0.11761 0.23518-0.23518-0.47037-0.47036v0.94074zm-119.65-0.2352h0.17639v-0.35277h-0.35278v0.35277zm80.786 0h0.17638v-0.35277h-0.35277v0.35277zm3.151 0h1.2107l0.67721-0.97014 0.67722-0.97013 0.22343-1.1641 0.22344-1.1641-0.31563 0.19506-0.31563 0.19508-1.0774-0.41346 0.425-1.1075-3.6141 1.967-0.76132 0.70928-0.76133 0.70928 0.56969 0.31881 0.56969 0.31882v1.1097l1.0583-0.87834v1.1447zm-108.59-0.44831 0.21313-0.21314-0.18528-0.46302-0.18529-0.46303-0.0279 0.67617-0.0279 0.67615zm114.97 0.0955h0.17639v-0.35278h-0.35278v0.35278zm26.106 0h0.17639v-0.35278h-0.35278v0.35278zm-57.515-1.7639h0.16398l0.7552-1.4111h-1.0832v1.4111zm67.04 0h0.17639v-0.35278h-0.35278v0.35278zm-53.887-0.36416 0.26458-0.0114 3.8806-2.7922 6.4716-5.8281 0.0274-0.47871 0.0274-0.47872-1.2347 0.54204-1.7432-0.0488-1.4864-1.8641-1.4455 1.27-5.0263 9.0018v0.69963l0.26459-0.0114zm38.738 0.0114h0.15557v-1.5522l-0.39259 0.39259-0.3926 0.39259 0.23703 0.38352 0.23702 0.38351zm-54.369-0.35277h0.15557l0.21803-0.35278 0.21803-0.35277h-0.7472v0.70555zm-81.67-0.58859 0.90434-0.21622 0.13056-0.11033 0.13056-0.11034-0.22548-0.89836-0.22548-0.89839h-1.11l-1.656 1.3027 1.1472 1.1472zm82.749 0.23581h0.17639v-0.35277h-0.35278v0.35277zm3.7134-0.80185 0.69635 0.0524v-0.95568l0.26459-0.14798 0.26458-0.14797-0.93965 0.23714h-1.3313l0.17452 0.45479 0.17451 0.45479zm-60.158-0.25649h0.17639v-0.35277h-0.35277v0.35277zm12.7 0h0.17639v-0.35277h-0.35277v0.35277zm106.38-0.70555h0.33196v-0.70556h-1.1l0.21803 0.35279 0.21803 0.35277zm2.2722 0h0.17638v-0.35277h-0.35277v0.35277zm-104.19-1.0249 0.23387-0.56258-1.8788-1.584-0.4088-4e-3 0.056 1.5875 1.7639 1.1252 0.23387-0.56258zm88.019 0.20177 0.23518-0.23518-0.23518-0.23519-0.23519-0.23518v0.94073zm2.7669 4e-3 1.228-0.0628 2e-3 -0.1764-0.70556-0.70555-0.70555-0.70556h-0.98285l-0.21528 0.561-0.21527 0.561 0.18263 0.29551 0.18264 0.29551 1.228-0.0628zm-39.046-0.34078 0.64458 0.0486 5.4136-9.0419v-0.78882l-0.69061 0.4313-0.69062 0.43129-0.83143-0.78108-0.83142-0.78109-2.424-0.01-0.49238-0.31177-0.49237-0.31177 0.21985-0.57293 0.21986-0.57294-1.28 0.68506 0.0894 0.81216 0.0894 0.81217 0.0294 0.13138 0.0294 0.1314 0.9044-0.7506 0.47638 1.0762 0.47637 1.0762-0.95478 0.59009 0.24196 0.24195 0.24195 0.24196-0.35278 0.65917-0.35277 0.65917h1.4359v1.0805l-0.98036 0.3762 0.3571 1.3655h-2.4342l-0.19681 0.19682-0.19682 0.19682 0.17064 0.65251 0.17063 0.65251 1.3459 0.35195v0.97425l0.64459 0.0486zm25.642-0.8712 0.86954-0.16623-0.19309-0.31244-0.1931-0.31242h-1.3278l-0.18762 0.30357-0.18761 0.30357 0.35018 0.35018 0.86954-0.16622zm-82.907-0.79109h0.17639v-0.35278h-0.35278v0.35278zm2.378-0.39827 0.74773-0.40017-1.3299-0.97245-0.29966 0.53546-0.29965 0.53546 0.21689 0.35093 0.21689 0.35094zm48.069-0.30729h0.48753l0.17393-0.28143 0.17393-0.28142-0.30262-0.48964-0.30261-0.48964-1.1043 0.91652 0.19332 0.31281 0.19333 0.3128zm2.1375 0h0.54998l-0.43606-0.70555h-0.66391v0.70555zm22.381-0.52504 0.88195-0.18001 4.4815-1.013 0.157-0.22222 2.2466-4.0569h-0.43202l-4.6893 2.4832-3.5278 3.169zm40.746 0.17226h0.17639v-0.35277h-0.35278v0.35277zm-109.06-0.68956 0.32454-0.32455-1.2001-4.8067-3.5932-7.5848-0.41881 0.00159-0.079 1.1208-0.0789 1.1208 0.3739 0.45053 0.37391 0.45052-0.24658 0.39896-0.24657 0.39897-1.3069-0.34177-0.21243 0.66932-0.21244 0.66932-0.65801 0.1058-0.88194 0.0706-0.99331 1.3366-0.46984-0.64254-0.46984-0.64255-0.53645 0.54649 2.4694 2.1168 7.7381 5.2105 0.32455-0.32455zm89.087-0.4407 1.5731-0.10446 0.10383-0.35278 0.10383-0.35277-0.97663-1.2905-0.71136 0.38072-0.71137 0.38071-1.8784-0.71415-0.36238-1.3858-1.3599 0.72779-1.3845-0.43942v-0.70439l0.71452-1.3351-0.68158-0.36477-0.68158-0.36478-0.13661 0.40984-0.13662 0.40984-2.3388-1.1668-0.31871 0.19698-0.31871 0.19697-2.4972 4.9587 0.11084 0.0973 0.11083 0.0973 9.8766 0.49626 0.16385 0.16384 0.16385 0.16385zm-98.317-0.28085h0.40276l-0.22278-0.22277-0.22277-0.22278 0.62408-1.1661-3.7738-3.3272h-1.0496l-0.12389 0.37169-0.1239 0.37168-2.1041-2.9155-0.8674-0.84405-0.86739-0.84406-0.44416 0.71866-0.90605-1.0917h-0.86259l-1.277-1.4111h-0.86338l-0.87676-2.1166h-0.52298l-0.76058 3.5719-0.76059 3.5719 0.38511 0.46404 0.38512 0.46403 0.91118-0.34965 0.41488-0.91058 0.41489-0.91057 1.5991 1.5022 0.41129-0.4113 0.4113-0.41129 1.858 0.84656-0.30176 2.5848 0.75596-1.2522 1.584-1.8794 1.2383 0.77534 0.11055 1.111 0.11054 1.111h0.61046l1.1444 1.1444 1.0227-1.3208 0.46751 0.60046 0.4675 0.60046 1.6449-0.43014-0.44556 2.2278zm102.97-1.7801 0.73577-0.39377-0.31222-0.31222-0.57966 0.22244-0.57966 0.22243v0.6549zm-65.984-2.4922 0.61122-1.1958 2.1522-6.1092 0.5312-2.5665 0.53119-2.5665-0.18178-0.29414-0.18178-0.29413-1.8097 1.4235h-0.96318v-0.39916l0.34826-0.65074 0.34827-0.65074-0.87292-1.6644-1.2347 0.24178v-1.7172l-0.91699-1.3513-0.91698-1.3512 0.5642-0.41256 0.56421-0.41256-0.0112-0.49027-0.0112-0.49028-1.0795-1.4111-0.9161 1.2347h-0.80416l-3e-3 0.26458-3e-3 0.26459-1.8575 0.86233-0.68204-0.42152 0.20516 0.66154 0.20517 0.66154 2.1347 6.9659v2.2309l1.2129 2.9863 1.2128 2.9863 0.6063 2.4305 0.60629 2.4305 0.61122-1.1958zm-68.631 0.39172h0.17639v-0.35278h-0.35278v0.35278zm1.4111 0h0.17639v-0.35278h-0.35278v0.35278zm0.70555-0.35278h0.17639v-0.35278h-0.35277v0.35278zm138.82-0.70556h0.35278v-0.70555h-0.70556v0.70555zm-51.682-0.70555h0.17639v-0.35278h-0.35278v0.35278zm-76.045-0.56678 0.17578-0.17578 1.9399-8.4826-1.9181-1.6887-0.90677-0.0224-1.7391-1.1395v-0.8908l1.0737-0.89112-0.80145-0.56173-0.80145-0.56174-1.1588 0.1958-0.66953-0.80949-0.66952-0.80949-1.3408-0.75596-0.14636-0.43908-0.14636-0.43907 1.5378-0.40216-0.21511-0.85709-0.21512-0.8571 2.1417-2.0007v-0.42248h-1.4111v0.65644l-4.4097-0.1618-0.01-1.1436-1.7986-1.4148-0.43027 0.26592-0.43026 0.26591 2.4968 5.2575 0.39574 2.1059 0.39574 2.106 0.3533 0.97752 0.3533 0.97753 5.6365 8.6283 0.47583 0.35278 2.0656 3.3132 0.17579-0.17579zm98.372 0.17077 0.10225 0.0432 1.4639-0.74684 1.4639-0.74683 4.276-1.6066 0.24762-1.7131 0.24763-1.7131 1.3308-1.0789-0.68178-1.5279 0.22489-0.58607 0.2249-0.58606 0.86756 0.21774 0.86756 0.21775 1.0805-2.0895v-1.305l0.77125-0.77125-0.61446-0.93777-0.61445-0.93777 0.8055-0.8055-1.5292-1.6277h-1.4712l-0.41524 0.66491-0.41524 0.6649 0.19514 0.74621 0.19513 0.74621h-1.4274l0.18996 0.72639 0.18996 0.7264-1.4391 0.37633-0.17695 0.67667-0.17696 0.67667 0.77862 2.0628 1.274 0.33315v0.72406l-1.2347 0.39926-0.38397 0.83204-0.38398 0.83204 0.56037 0.36612 0.56036 0.36612-1.5875 1.5128v0.7197l-0.64188-0.3967-1.118 0.429 0.15109 0.24446 0.15108 0.24446-0.3362 0.51232-0.33621 0.51233-0.43426-0.53095-0.43427-0.53094-2.1167-0.0418-1.0583-0.3074-0.22328 1.9406-1.4269 0.76366 1.1779 0.63313 1.1779 0.63314 0.10225 0.0432zm19.653 0.0432h0.17639v-0.35278h-0.35278v0.35278zm10.892-0.70556h0.15443l-0.18817-0.71954-0.18816-0.71955-0.17517 0.17517-0.17517 0.17516 0.4178 1.0888zm-4.6297-0.35277h0.90359l-0.1845-0.70556-0.18451-0.70555h-0.1612l-1.277 1.4111zm-90.737-1.8643 1.3249-1.4871-0.17006-0.17584-0.17006-0.17583-0.96448 1.319-1.0764-0.15798-1.0764-0.15799v0.55016l0.40386 0.88636 0.40385 0.88636zm94.352 1.5115h0.17639v-0.35278h-0.35278v0.35278zm-81.717-0.54918 0.12795-0.11829-0.87328-3.7422-2.3353-5.1153h-0.65363l0.16115 0.84296 0.16114 0.84296-1.2858 2.0182-0.72185 0.51563 5.2917 4.8743zm22.744 0.1964h0.17694l0.55801-0.21413 0.55802-0.21413v-1.0593l1.857 0.46608 6.4773-2.5098 2.3861-1.7604-0.66625-0.1106-2.8222-0.0658 0.24374-2.4694 0.13471-0.13899 0.13471-0.13898 4.4257 1.0861 0.52917-0.32062v-1.3916l1.1058-0.42432 0.76578 0.76578 0.86958-0.68402 0.86959-0.68402 0.26416 0.16327 0.26417 0.16326 1.262-1.3945h-1.1677v-0.94898l-0.67047-0.60676-0.67046-0.60676-1.4273 1.532-0.41924-0.2591-0.41924-0.25911-0.29315 0.47434-0.29316 0.47434 0.79622 0.95938-0.50648 0.33546-0.50649 0.33546-1.8787-0.34198-0.89113 1.0737-1.5909-0.39928-1.906 0.72467-0.67371-0.21382-0.6737-0.21383 0.20102-0.63337 0.20103-0.63337-1.4391-0.37633-5.1071 9.9826-0.11759 0.26841-0.1176 0.26841h0.17694zm-6.7767-2.8222 1.3882-1.5875 2.0516-2.9986 2.0517-2.9986 1.892-3.27-1.7833-0.44757v-1.0697l-1.4832 0.79381-1.339-0.35015v0.6395l-1.9403 0.0448 1.5875 0.6381v0.75043l-1.0708 0.41092 0.048 0.40083 0.0481 0.40083-0.0836 0.88194h-1.3065l-0.21806 2.734-0.21807 2.734-1.0125 3.8806zm32.588 1.4111h0.17639v-0.35278h-0.35278v0.35278zm35.337-1.8815 0.23518-0.23519-0.47037-0.47037v0.94074zm-141.7-0.23519h0.35278v-0.31114l-0.35278-0.21802-0.35278-0.21803v0.74719zm28.046-2.8222h0.17639v-0.35278h-0.35278v0.35278zm71.593-1.0583h0.54999v-0.31114l-0.3284-0.20296-0.3284-0.20297-0.44317 0.71707zm-71.152-0.3662 0.44097 0.0134v-1.4111l0.88195 1.3e-4 -0.0558-3.8684-0.63709-0.70397-0.63708-0.70397-0.1908-1.7391-0.24354-0.39405-0.24353-0.39404-0.96816 1.2769-0.0224 1.2347h-0.97194l-0.85269 1.0274 0.22311 0.36101 0.22312 0.361 0.64247-0.40123 0.64247-0.40122 1.1518 0.44198v2.1038l1.1673 0.65327-0.46534 1.2127-1.3681 0.35778 0.42126 0.47975 0.42126 0.47976 0.44097 0.0134zm76.417-1.0182 0.92983-0.85525v-0.66896l-0.54843 0.45516-0.54843 0.45515-0.38139 0.73457-0.3814 0.73457zm-2.6862-0.82282 0.44097-0.34861v-0.61916h-1.3356l-0.19431 0.50637-0.19432 0.50637 0.84231 0.30363zm-50.447-1.326 0.26459-5e-3 0.47863-0.30328 0.47864-0.30328-0.39044-0.2413-0.39044-0.24131-0.70556 0.43605v0.66392l0.26458-5e-3zm82.815 5e-3h0.17639v-0.35278h-0.35278v0.35278zm8.1139 0h0.17639v-0.35278h-0.35278v0.35278zm-98.425-0.35278h0.17639v-0.35278h-0.35278v0.35278zm55.827-1.9251 0.49922-0.19156h1.0006v-1.5522l-0.42333 0.42334-0.42334 0.42333h-1.1524v1.0887zm33.073 0.16121h0.17639v-0.35277h-0.35278v0.35277zm-83.961-0.35277h0.17638v-0.35278h-0.35277v0.35278zm9.2244 0h0.078l-1.4657-4.4097-0.12959-0.15063-0.12958-0.15064-0.96393 1.3182 2.533 3.3928zm23.143-1.7639h0.57577l0.23254-0.37625 0.23253-0.37625-0.12408-0.12407-0.12407-0.12408-1.3685 1.0006zm54.769-0.35278h0.17639v-0.35233h-0.35278v0.35278zm-108.91-1.939 0.1014-0.0865-0.89329-1.9606-0.20596 0.8465-0.20596 0.84649 1.1024 0.4406zm17.596 0.0577 0.13442-0.13442-0.44332-1.1553-0.66588 0.41154 0.84036 1.0126zm16.581-2.2e-4 0.23519-0.23519-0.23519-0.23518-0.23518-0.23519v0.94074zm60.824-0.35005 0.85325-0.22828 1.2347-0.01v-1.004l-3.1749 0.1226 0.66578 0.22198-0.21608 0.56307-0.21607 0.56308zm-67.586-0.23792h0.17639v-0.35277h-0.35278v0.35277zm77.611 0h0.17639v-0.35277h-0.35278v0.35277zm-94.926-0.35232h0.14753l1.1368-0.43622-0.53479-0.39925-0.53478-0.39926-0.22524-1.1465-0.22523-1.1465h1.7657l0.41553-0.50069 0.41554-0.50069-0.97428-0.58612-0.22808-0.62042-0.22809-0.62043 0.33859-0.89055 0.33859-0.89054-0.86668-1.3878 0.40088-0.64192 0.40088-0.64191-0.36934-1.9321-0.51298 0.19685-0.51299 0.19685h-0.7572l1.1692 1.292-0.23595 0.23596-0.23595 0.23595h-1.218l-0.2183 0.5689-0.21831 0.5689-0.4368-0.34442-0.43679-0.34443-1.2044 0.0214-0.1805 0.47037-0.1805 0.47038h-0.68015l-0.22557-0.71068-0.22555-0.71068-0.65975 0.40774-0.42328-1.103h-1.0077l0.79094-1.4779-1.6481 0.5072-0.11158 0.0971-0.11159 0.0972 2.057 5.8916 1.7885 4.8651 0.61222 0.34261 0.61222 0.34262 1.6097-2.0187 0.74051 0.67015 0.7405 0.67015v1.3018h0.14754zm16.211-1.266 0.39835-0.15286v-2.1089h-1.1171l-0.23642-0.23642-0.23642-0.23643 0.52642-0.80342 0.52643-0.80343-0.17643-0.45975-0.17642-0.45976 2.0516-0.90814-0.3809-1.4565 0.73991-0.45728-0.3804-3.375-1.2986 1.1753-0.21719 0.68431-0.2172 0.68431 0.56987 0.62969 0.56986 0.6297-1.0724 0.88999-1.4149-0.37v1.3034l-0.61197 0.37822-0.39132 3.3676 2.1469 2.2382zm38.498-0.85061h0.17639v-0.35278h-0.35278v0.35278zm-69.85-0.35278h0.17638v-0.35278h-0.35277v0.35278zm-3.8218-0.47037 0.23518-0.23518-0.23518-0.23519-0.23519-0.23518v0.94074zm4.9705-0.23518h0.18454l0.95973-1.2347 0.57663 0.70556 0.57662 0.70556-0.25535-0.70556-0.25536-0.70556-0.8356-2.293-0.8356-2.2931-1.5395-5.2142-1.2627 1.674 0.36383 0.4384 0.36384 0.43839-1.006 0.44966-1.006 0.44965-1.1846 1.4113 0.32774 0.33513 0.32774 0.33514v0.83494l-1.5508 0.40554-0.91031-0.7555-0.43661 1.1378h-0.90056l-0.37096 1.4186 0.80145 2.1233 1.0747-0.48232 1.5875-0.061v-0.96423l0.68277 0.17854 0.68278 0.17855 0.1881-0.49018 0.1881-0.49016h1.1026l0.40612 1.0583h1.4017l0.1845 0.70555 0.18451 0.70556zm62.616-0.0278 0.26459 0.0278v-1.0583h-1.4111v0.64676l0.88194 0.35588 0.26458 0.0278zm-6.6146-2.0889h0.17639v-0.35278h-0.35278v0.35278zm1.69-0.84056 0.45529-0.62265-0.28222-2.4174h-0.60354l-0.7552 1.4111-1.2099 0.0704 1.7618 0.49016 0.0355 0.5135 0.0355 0.51351 0.1074 0.66402 0.45529-0.62264zm-5.5118-0.33536 0.23518-0.23519-0.23518-0.23519-0.23519-0.23518v0.94074zm-13.12-0.58797h0.12672l1.112-0.42671-0.39036-0.63162h0.74719v-1.6978l-1.4111 0.36902v-0.98382l-1.465-1.2543 0.78417-0.94487-0.10057-0.44687-0.10057-0.44688 0.88194-0.26065 0.88194-0.26064 2.3347-0.0704-0.46522 0.75274 0.95275-0.1308 1.1524 0.0836 0.21752 0.79375 0.21753 0.79375 0.34738-0.52917 0.34739-0.52916 0.01-0.95744-0.53717 0.20614-0.53717 0.20613-1.3951-1.3951v-0.9912l-2.7098 0.36346-0.76176-0.96842-0.76177-0.96844v-0.89262h-2.5535l-2.0168-1.4911-0.47058 1.8749 0.21574 3.7706 0.21573 3.7706 0.21357 0.55654 0.21356 0.55653 0.94461 0.2731 0.94461 0.27311 2.7485-0.20047-0.22885 0.59636-0.22884 0.59636 0.19835 0.32094 0.19836 0.32094zm11.141 0h0.33196v-0.70555h-1.1l0.43605 0.70555zm0.86112-1.4111h0.17639v-0.35278h-0.35277v0.35278zm53.946-1.7917 0.67615 0.0279-0.21313-0.21314-0.21314-0.21313-0.46302 0.18529-0.46302 0.18528zm-2.2004-1.2951 0.39732-0.79375h1.3033v0.68342l1.1058-0.42433-0.75297-0.75297v-1.2901l-2.1268-4.2132h-0.3545l0.89383 1.7639 0.89382 1.7639h-0.98462l-0.88842-2.1448-0.83142 1.6157 0.67813 1.3263 0.67812 1.3263-0.2044 0.96674-0.20441 0.96673zm-31.618-0.16748 0.90131 0.0746-0.19026-0.30785-0.19026-0.30784-1.4221-0.37189v0.83839zm39.807-0.27349h0.13864l0.42018-1.095-0.69747 0.43107v0.66391zm-79.093-4.5245 0.24422-3.413 1.0189-3.3146-0.66549-0.60225-0.66548-0.60226v-1.2796l-0.53189 0.20411-0.53189 0.2041-1.7584-1.1522v-1.1034l2.1167-0.79895v-2.3148h-0.65801l-0.48998-1.5438-1.2574 2.4258 0.33294 0.4036 0.33293 0.4036-1.0827 1.0827v0.96761l-0.86978 0.86978 1.5753 0.41196v1.0421l-1.3892 0.36329 0.0773 0.75546 0.0772 0.75547-0.85186-0.1664-0.23571 1.2565-0.23572 1.2565 0.44496 3.2463 1.0547 1.1654v1.2151l2.4617-1.8776 0.22002 0.57336 0.22002 0.57337-0.19925 0.76194-0.19925 0.76195 1.2009 0.88191zm-36.933 2.4078h0.17639v-0.35278h-0.35278v0.35278zm50.504-0.61737 0.17794-0.44097-0.35588-0.88194v1.7639zm30.302 0.26459h0.15556v-1.1l-0.71706 0.44317 0.40592 0.6568zm29.671-0.47037 0.23518-0.23519-0.47037-0.47037v0.94074zm-123.02-0.58797h0.3736v-0.70555h-0.31114l-0.43606 0.70555zm71.393-1.0583h0.45599l-0.0736-2.9337-1.4482-0.22102-0.78898 1.7316 1.5669-0.1644-0.168 1.5875zm-64.493-0.35278h0.17638v-0.35278h-0.35277v0.35278zm65.969 0h0.17639v-0.35278h-0.35278v0.35278zm43.373-0.3752 0.37174-0.37785-1.3695-1.0108-0.5576 0.8819 1.1836 0.88458zm-122.39-0.33035h0.17639v-0.35278h-0.35278v0.35278zm13.758-0.35278h0.17639v-0.35278h-0.35278v0.35278zm109.42-0.11759 0.23519-0.23519-0.23519-0.23518-0.23518-0.23519v0.94074zm-90.227-0.94075h0.31975l-0.1845-0.70555-0.18451-0.70556h1.3523l0.67618 0.67618 0.69965-0.49979 1.2465-1.4796-0.39767-2.6737-0.39766-2.6737-0.9478 0.3637-1.4082 2.3867 0.6828 0.422-1.6002 2.0281-1.2099 0.039-0.3815 0.71285-0.38151 0.71285 0.23252 0.37622 0.23253 0.37622 0.38351-0.38351 0.38352-0.38349h0.56444v1.4111zm15.42 0h0.13524v-1.4111h-0.6395l0.18451 0.70556 0.1845 0.70555zm-11.309-0.35277h0.15557v-0.70556h-0.74719l0.21803 0.35278 0.21802 0.35278zm86.41 0h0.17639v-0.35278h-0.35277v0.35278zm0.70556 0h0.17639v-0.35278h-0.35278v0.35278zm9.1722 0h0.17639v-0.35278h-0.35278v0.35278zm-57.444-0.82315 0.23518-0.23519-0.47037-0.47037v0.94074zm56.033-0.23519h0.17639v-0.35277h-0.35278v0.35277zm-83.94-0.35277h0.15556v-0.70556h-0.74719l0.21803 0.35278 0.21802 0.35278zm10.773-0.47351 0.97401-0.36764-1.1841-0.9003-0.44692-0.0224-0.15847 0.82902-0.15848 0.82901zm38.243-0.23205h0.17639v-0.35278h-0.35278v0.35278zm3.6834 0h0.37359v-0.70556h-0.31114l-0.21802 0.35278-0.21803 0.35278zm-88.703-0.70556h0.17639v-0.35277h-0.35278v0.35277zm33.69-0.52916 0.35278-0.21803v-0.66392h-0.70556v1.1zm78.405-0.062 0.44097-0.28 0.64676-0.01 0.14699-0.44098 0.14699-0.44097-0.58796 0.0224-1.2347 0.93729v0.49302zm-24.938-0.11442h0.15557v-0.70556h-0.7472l0.43606 0.70556zm6.682-0.35278h0.17639v-0.35278h-0.35278v0.35278zm-65.969-0.70555h0.52916l4e-3 -0.61737 4e-3 -0.61736 0.21867-1.3229 0.21866-1.3229h-1.9444l0.22049 1.1024 0.22048 1.1024v1.6757h0.52917zm58.385-1.7639h0.47037l-0.23518-0.23519-0.23519-0.23518-0.23519 0.23518-0.23518 0.23519zm4.4097-0.35278h0.17639v-0.35278h-0.35277v0.35278zm-102.22-1.0637 0.0882 5e-3v-0.70555l-1.2347 0.01 1.0583 0.68395 0.0882 5e-3zm97.984-0.70015h0.17639v-0.35278h-0.35278v0.35278zm-71.967-1.0583h0.17639v-0.35278h-0.35278v0.35278zm76.729 0h0.35278v-0.31114l-0.70556-0.43606v0.7472zm-63.088-1.4111h0.29398v-1.0583h-0.66391l-0.18762 0.30358-0.18762 0.30357 0.45119 0.45119zm11.122-0.52917 0.3237-0.35278 1.8948-2.5902-0.21722-1.0862-0.21723-1.0861h1.1465v-1.0583h-0.70556l-1.4111 1.4111h-1.0583v-1.4111h-0.65516l-0.93234 0.88194-0.70556 0.0308-3.175 0.97261 0.70556 0.1363 0.70555 0.13631 0.45619 0.15049 0.45618 0.15051-0.7608 1.4216h0.64809l0.19648-0.75137 0.19649-0.75137 0.57907 0.2222 0.57906 0.22221h1.3534v1.7222l0.36713 0.2269 0.36712 0.2269-0.46078 1.5281 0.3237-0.35278zm-12.415-2.6458h0.17639v-0.35278h-0.35278v0.35278zm-17.836-0.35278h0.72637v-0.27729l-1.0357-0.39745-0.2085 0.33737-0.20851 0.33737zm13.25-0.35278h0.17639v-0.35278h-0.35278v0.35278zm83.961 0h0.17639v-0.35278h-0.35277v0.35278zm-113.24-0.70556h0.17639v-0.35277h-0.35278v0.35277zm9.3486-0.35277h0.47037l-0.47037-0.47037-0.23519 0.23518-0.23518 0.23519zm1.1465-0.44081 0.44097-0.14682 0.12888-0.6651 0.12889-0.66509-1.1397 0.94588v0.67796zm27.329-0.83924 0.4524-0.6187v-2.0282l0.35338-0.66028 0.35337-0.66028-2.4647 0.39996-0.59821-0.48665-0.5982-0.48665 0.44888 1.1986-1.4266 0.45279 1.1794 1.3033 0.87011-0.33082 0.87011-0.33081h0.38096l-0.27336 2.8664zm-24.762 0.22171h0.1098l1.116-0.42826v-0.55458l-0.56101-0.21528-0.561-0.21528-0.30553 0.18884-0.30554 0.18883 0.19873 0.51787 0.19872 0.51786zm2.2842-1.4111h0.35278v-0.31114l-0.35278-0.21802-0.35278-0.21803v0.74719zm-25.606-0.38063 0.67616 0.0279-0.21314-0.21313-0.21313-0.21314-0.46302 0.18529-0.46302 0.18528zm43.245-0.50131 0.35278-0.21803v-0.66392h-0.70556v1.1zm6.8792 0.17639h0.17639v-0.35278h-0.35277v0.35278zm-49.036-2.1167h0.17638v-0.35278h-0.35277v0.35278zm79.081-0.47037 0.23519-0.23519-0.23519-0.23518-0.23518-0.23518v0.94073zm-34.984-0.23519h0.17638v-0.35277h-0.35277v0.35277zm33.161-0.70555h0.17638v-0.35278h-0.35277v0.35278zm-31.044-0.35278h0.17639v-0.35278h-0.35278v0.35278zm-8.414-0.35278h0.47653v-1.3534l0.21414-0.55802 0.21413-0.55802h-0.6084l-0.77292 2.4694zm39.106-0.70555h0.17639v-0.35278h-0.35278v0.35278zm15.741-0.20279 0.32156-0.19874-0.20296-0.3284-0.20296-0.32841h-0.64178l0.20229 0.52715 0.20228 0.52714zm23.77-0.85555h0.17639v-0.35277h-0.35278v0.35277zm-80.913-0.55957 0.30357-0.18762v-0.54632h-1.0583v0.47037l0.22559 0.22559 0.22559 0.2256zm-0.2256-1.2043h0.17639v-0.35278h-0.35278v0.35278zm76.876-1.439 0.67615 0.0278-0.42627-0.42627-0.46302 0.18529-0.46302 0.18528 0.67616 0.0278zm4.6155-1.0305h0.17639v-0.35278h-0.35278v0.35278zm-11.289-1.0583h0.17639v-0.35278h-0.35278v0.35278zm-20.108-1.4111h0.17639v-0.35278h-0.35278v0.35278zm-45.899-1.4111h0.13865l0.42018-1.095-0.69747 0.43106v0.66392zm58.775-5.9972h0.47037l-0.23519-0.23518-0.23518-0.23518-0.47038 0.47036zm-84.843-2.1167h0.17639v-0.35278h-0.35278v0.35278zm-1.0375-1.0583h0.15557v-0.70555h-0.7472l0.43606 0.70555zm74.063-2.1167h0.17639v-0.35278h-0.35278v0.35278zm-21.167-2.4694h0.17639v-0.35277h-0.35278v0.35277zm-2.1167-3.5278h0.17638v-0.35278h-0.35277v0.35278zm-15.875-0.70556h0.17638v-0.35278h-0.35277v0.35278zm-49.389-0.35278h0.17639v-0.35278h-0.35278v0.35278zm55.386-0.35278h0.17639v-0.35277h-0.35278v0.35277zm-16.581-0.70555h0.17639v-0.35278h-0.35278v0.35278zm19.05-0.70556h0.17639v-0.35277h-0.35278v0.35277zm-46.214-0.70555h0.17639v-0.35278h-0.35277v0.35278zm2.8222 0h0.17639v-0.35278h-0.35278v0.35278zm-7.7611-2.1167h0.17639v-0.35278h-0.35278v0.35278zm24.342-3.5278h0.17639v-0.35277h-0.35278v0.35277zm574.06 95.58-0.79853-0.0224-0.88197-0.35083-0.88193-0.35083-1.5986-1.3467-1.5985-1.3467-3.1136-0.52604-3.9198-1.3657-8.4666-1.7719-4.2334-5.3e-4 -4.5447 0.73698-0.10317-0.10313-0.1031-0.10313 6.5087-2.0693 1.241-1.2347h2.3743l1.794 1.4111 3.0637-0.01 0.48749-0.30876 0.48752-0.30876-0.84029-0.52781-0.84029-0.52782-3.8805-1.2498-1.3482-0.88977-1.3482-0.88978-0.68688-1.3464-0.68686-1.3464-0.22813-1.6768-0.22812-1.6768 1.0635 0.87583 0.20354-0.20354 0.20357-0.20354 0.41926 0.78342 0.41929 0.78343 0.28405-0.45961 0.28406-0.45962 1.2963 2.1207 0.84661-0.28548 0.45532 0.72906 0.4553 0.72907h1.3074l0.17401 0.66536 0.17399 0.66537 2.8561 0.45671 5.2179 3.6071 0.80725-0.75838 0.80727-0.75839 1.2531-4.0542 0.83789-1.4557 0.83785-1.4557 3.3728-2.1406 4.2333-1.759 4.029-1.1685 2.9717 0.21833 0.12939 0.39412 0.12938 0.39411-0.99304 0.19862-0.99303 0.1986-2.1075 0.80995-2.1076 0.80994 6.158 0.48617 1.2426 0.41007 1.2425 0.41008v0.56855l-1.5875 0.42543-5.9972 0.0932-1.0583 0.24574-1.0583 0.24573 3.175 0.54309 4.2333 1.0533 0.34981 0.34013 0.34986 0.34013-0.52626 0.33269-0.5262 0.33269-5.9972 0.0943-2.1167 0.45984 4.7188 2.0641-0.17539 0.28378-0.17537 0.28379-4.7209 0.0478 1.5875 0.76562v0.52805l-2.6008 1.6572-1.2451 0.65594-1.2451 0.65593 5.4632 1.7225-0.20696 0.3349-0.20698 0.33491h-1.2284l-0.33512 0.31866-0.33515 0.31866-3.5278-0.59526-1.7639-0.012 2.8222 2.4922 1.9753-0.3943-0.24876 0.40253-0.24879 0.40254 1.0995-0.21991 1.0995-0.2199 0.21241 0.34372 0.21246 0.34371-1.2795 0.3993-0.61256 0.32702-0.61259 0.32703-0.79852-0.0224zm-0.62216-0.73889h0.88196l-0.88196-0.35588-0.44096 0.17794-0.44098 0.17794zm-1.3516-0.29708h0.25159l0.16762-0.27119 0.16758-0.27119-2.8181-2.3659-0.34986 0.34985-0.34981 0.34985 2.6794 2.2086zm-604.02-13.582-0.35277 0.21803v-1.4528h0.70555v1.0167zm-0.13964-2.7414-0.21313 0.21313 0.0279-0.67615 0.0279-0.67616 0.18528 0.46302 0.18529 0.46302zm576.58-20.901-0.52917 0.10438-2.6568-0.61836-2.7882-1.4224-4.6222-4.3238-9.6884-2.3447-7.0556-2.4941-2.0261-8e-3 -9.4669-2.1167h-3.1937l-1.3501-0.72253-13.903 1.7684-0.1962-0.1962 12.75-4.0274 1.372-1.7442 2.6888-0.72403 1.0905 0.21809 1.0905 0.2181 2.7746 2.375 1.9778 0.75196 3.9219-0.47738 1.3229-0.52212 1.3229-0.52211v-0.56183l-3.1737-1.8599-7.586-2.4813-3.0267-1.7692-1.2434-1.0917-1.2433-1.0917-0.83333-1.6444-0.83328-1.6444-0.55515-2.1424-0.55517-2.1424v-2.544h0.61952l0.55369 0.79375 0.55367 0.79375 0.0183-0.79375 0.0188-0.79375h0.60227l2.2012 4.057 0.01-0.97014 0.0101-0.97014h0.71433l2.5399 3.9704 0.32348-0.48592 0.32353-0.48592 2.7439 3.0244 0.22604-0.36569 0.226-0.36569h0.66392l1.4111 1.4111v1.7306l1.8232-0.21593 1.8232-0.21592-0.22461 0.58532-0.22463 0.58533h2.9956l2.1383 1.9403 2.8194 1.9403h0.63791l2.4992 2.3928 0.81094 0.24396 0.81095 0.24397 3.0354-3.057 2.9964-9.0274 2.2976-3.4142 2.3959-2.2203 9.8628-4.9341 7.776-2.5612 6.35-0.30812 1.9403 0.752v0.54823l-10.407 3.4015-1.7118 0.92161 7.3563 0.48724 6.568 1.0168 2.4278 1.0144v1.0624l-2.2931 0.34891-11.145 0.41852-4.0248 0.70791-1.0583 0.42371 9.3631 1.5821 5.9827 1.8653v1.3749l-1.5875 0.31505-14.746 0.78069-0.67818 0.41914 2.3268 1.4733 6.395 2.5676v0.9841l-9.8778 0.35278 2.5605 0.9085 1.2202 1.3484-2.3697 1.4447-0.85338 2e-3 -1.7917 1.9403-4.4104 2.1167v0.59674l8.0511 2.4378 0.67022 0.35867 0.67016 0.35867-0.13676 0.41709-0.13682 0.41709-2.4151 0.23155-0.62508 0.56324-0.62505 0.56325-2.2776-1.0843-1.2275 0.77636-1.7475-0.62063-1.7474-0.62065-2.8624 0.45772 0.0418 0.43898 4.3843 3.6463 1.9241 0.87668 1.7971-0.81881h1.0251v0.56936l-1.9403 0.82255 3.5278-0.28128 1.4902-0.46192 0.23331 0.60808 0.23339 0.60809-0.16729 0.16726-0.16725 0.16727-3.1958 0.36021 0.1838 0.29734 0.18376 0.29736-1.9691 0.43904-0.52916 0.10437zm-1.3021-1.2337 1.6965 5e-3 -0.21801-0.35278-0.21802-0.35278-1.8986 0.01-1.0583 0.68395 1.6965 5e-3zm-2.619-0.70556 0.56975-5e-3 0.51559-0.32611 0.5156-0.32611-0.97174-0.76436-0.97171-0.76436-3.6317-3.0999-1.1005 0.01-0.43624 0.27709-0.43627 0.27708 3.342 3.2006 1.0178 0.76307 1.0177 0.76308zm-360.87-26.806h-0.68951v-0.58256l0.79375-0.72579 0.79375-0.72578 1.129-0.57044 1.129-0.57043h1.6936l2.3983-0.81151 3.5593-3.2454 1.2874-0.7243-3.9974-3.4151-2.4129-4.7914-1.0366-0.73808-1.0365-0.73809h-0.68664l-0.43432-0.52332-0.43431-0.52332 1.8406-0.69978v-0.43645l-3.5278 0.4852v-0.68552l5.6716-0.88228-0.29518-0.29518-5.1453-0.8615-0.16002-0.48004-0.16001-0.48005 6.9682 0.44064-5.2416-1.9376-0.15822-0.48778-0.15822-0.48777 1.7207 0.258 1.7207 0.25802 0.63692 0.34083 0.63691 0.34084 0.84283-0.2848-1.2347-0.62857-1.2347-0.62858-1.2347-1.0826v-0.5962h1.036l6.9015 3.5356 0.39565-0.15183 0.39566-0.15182 0.38513-2.2333 0.38512-2.2333 0.4245-7.4083-0.54084-0.70555-0.54084-0.70556-0.0112-0.48892-0.0112-0.48893 3.3251 0.45576-2.7616-2.8282 0.84737-0.84737 3.1754 1.5427v-0.42686l-2.1166-2.4108v-1.3866h1.0042l2.0963 1.7639h0.45275l-1.7893-2.6332v-0.78519l1.3606-1.2313 0.68905 0.21869 0.68905 0.2187 4.0118 5.0353 0.81879 1.617 0.81878 1.617 0.533 1.7965 0.53301 1.7965 0.76677 1.503 0.76676 1.503-0.23589 3.4033-0.2359 3.4033 1.1173 4.7688 1.7176 3.3895 2.7008 1.1298 3.5278 1.1759 3.5278 1.0105 4.9389-0.68001 4.797-2.5041 1.9058 4e-3 2.4694 0.63315 1.9403 0.43469v0.96841l-7.9375 1.4732-9.1722 1.4434-3.8136 0.68606-6.417 4.1355-3.8806 1.416-2.4694 0.44318-9.8778 0.99721-6.7028 2.4832-4.7946 1.8155h-0.68951z"/>
  </g>
 </g>
</svg>
